<?xml version="1.0" encoding="utf-8"?>
<!-- Generator: Adobe Illustrator 23.0.5, SVG Export Plug-In . SVG Version: 6.00 Build 0)  -->
<svg version="1.1" id="Capa_1" xmlns="http://www.w3.org/2000/svg" xmlns:xlink="http://www.w3.org/1999/xlink" x="0px" y="0px"
	 viewBox="0 0 688.1 288.4" style="enable-background:new 0 0 688.1 288.4;" xml:space="preserve">
<style type="text/css">
	.st0{fill:#010202;}
	.st1{fill:#016D8B;}
	.st2{fill:none;stroke:#E52421;stroke-width:6;stroke-miterlimit:10;}
</style>
<path class="st0" d="M133,235.2c-1.2-0.5-1.1-1.4-0.8-2.4c0.6,0.1,1.1,0.1,1.7,0.2c1.5-5.1,3-10.2,4.5-15.3c-0.8-0.6-1.4-1.6-1-2.7
	c0.6,0.4,1,1,1.4,1.6c0.1-0.5,0.3-1,0.4-1.5c-0.3,0-0.5,0-0.8,0c-0.6-0.4-0.1-0.9,0-1.4c0.3,0.2,0.7,0.4,1,0.4
	c0.7-2.5,1.4-4.9,2.2-7.4l-0.4-0.1c-0.3,0.4-0.7,0.7-1.7,0.5c-0.1-0.5,0.3-0.7,0.7-0.8l-4.7-1.7c0.1,0.4,0.1,0.8,0,1.3
	c-0.5-0.3-0.7-0.8-0.7-1.5l-27-9.8c-3.3,6.3-6.6,12.7-9.8,19c0.2,0,0.4,0,0.6,0c-0.3,0.1-0.5,0.2-0.8,0.3
	c-3.2,6.3-6.5,12.5-9.7,18.8c0.2,0,0.4,0,0.5,0.1c0,0.2-0.1,0.4-0.1,0.6c-0.6,0-0.3-0.4-0.5-0.7c-2.2,4.2-4.4,8.5-6.6,12.7
	c3.7,2,8.1,4.1,12.9,6c0.3-0.5,2.1-0.2,2.9,0.1c0,0.6-0.7,0.5-1.4,0.5c2.1,0.8,4.4,1.6,6.7,2.4c2,0.6,4,1.2,5.9,1.8
	c-0.1-0.1-0.2-0.3-0.3-0.4c0.4,0.1,0.8,0.4,1.1,0.6c6.1,1.6,11.7,2.6,16.6,3.2c2.4-8.1,4.8-16.3,7.2-24.4
	C133.2,235.2,133.1,235.2,133,235.2z M86.6,240.8c-0.6,0-0.6-0.5-0.3-0.7C86.7,240.2,86.7,240.5,86.6,240.8z M88.4,234.7
	c-0.1,0-0.3,0-0.4,0c0.1-0.1-0.1-0.1-0.2-0.1C87.9,234.2,88.8,234.4,88.4,234.7z M132.9,225.9c-0.5,0-0.3-0.3-0.7-0.4
	c0.1-0.1,0.2,0,0.2,0c0.3,0,0.2-0.4,0.8-0.1C133.1,225.7,132.8,225.7,132.9,225.9z M136.6,210.8c1.3-0.2,0.3,1.5,0.3,2.3
	C136.5,212.6,136.4,211.8,136.6,210.8z M129.1,224.3c0.4,0,0,0.5,0.1,0.7C128.7,224.9,128.8,224.5,129.1,224.3z M129.1,229.5
	c1.3-0.1,0.2,1.8,0.3,2.7C128.7,231.7,128.3,230.1,129.1,229.5z M120.7,227.6c1.3,0.3,1.1,1.5-0.4,1.2
	C119.8,228.5,120.3,227.8,120.7,227.6z M118.8,213.4c0.4-0.4,1.2-0.6,1.7-0.1c0.1,0.4-0.3,0.3-0.3,0.6
	C119.7,213.8,119.1,213.7,118.8,213.4z M120.8,210.5c0.1-0.4,0.5-0.5,1-0.5c0,0.2-0.1,0.3-0.1,0.5
	C121.5,210.6,121.2,210.6,120.8,210.5z M121.1,234.1c2.5-0.5,5.5,0.2,7.8,1c0,0.3-0.1,0.5-0.1,0.8c-1-0.1-2.3-0.4-2.9,0.2
	c-1.1-0.9-2.8-0.9-4.6-0.9C121.3,234.7,120.8,234.6,121.1,234.1z M123.8,226.1c1.5,0.3,1.3,2,1.1,3.6c0.3,0,0.6,0.1,1.1,0.1
	c0.4,0.7-0.5,0.8-0.8,1.3c-0.6-0.4-1.7-0.4-2.1-0.8c0.1-0.3,0-0.7,0.3-0.9c0.4,0.1,0.7,0.1,1,0.2
	C123.6,228.9,123.4,227.7,123.8,226.1z M129.1,236.2c0.3,0.7-1.3,1.2-2.2,0.8C127.2,236.4,128.3,236.4,129.1,236.2z M125.5,232
	c1.1,0.2,2.2,0.4,2.6,0C130.4,234.3,122.9,234.1,125.5,232z M127.2,202.7c0,0.1,0,0.3-0.1,0.4c-1.3-0.4-2,0.4-3.6-0.1
	C124.4,202.6,125.7,202.7,127.2,202.7z M127.3,205.9c-2.9,0.1-9.8-1.2-9.5-3.6C120.5,204.7,125.8,203.8,127.3,205.9z M118,239.5
	c-0.6,0-0.3-0.3-0.3-0.6C118,239,118.1,239.2,118,239.5z M117.1,200.8c0.1,0.1,0.3,0.2,0.4,0c0.2,0,0.2,0.1,0.2,0.1
	c0,0.1,0,0.2,0,0.3c-0.2,0-0.4,0-0.6-0.1C117,201.1,117.1,200.9,117.1,200.8z M116.8,201.5c1,0.4,0.1,1.3,0.1,1.9
	c0,0.2,0.4,0.2,0.7,0.2c-0.2,0.4,0,0.6,0.1,0.9c-0.5,0.4-1.6,0.2-2.2-0.2C115.9,203.5,116,202.2,116.8,201.5z M116.3,232.7
	c-0.6-0.4-0.9-0.9-0.7-1.8c0.3,0,0.5,0.1,0.7,0.1C116.6,231.7,117,232.3,116.3,232.7z M115.7,207.6c0,0.3-0.2,0.4-0.6,0.3
	C115.1,207.6,115.3,207.5,115.7,207.6z M113.4,207.6c0.7,0.1,0.6,0.7,0.4,1C112.9,208.5,112.9,207.8,113.4,207.6z M112.5,212.6
	c0.3,0.1,0.4,0.3,0.3,0.6C112.2,213.2,112.5,212.8,112.5,212.6z M112.4,210.7c0,0.1,0,0.2,0,0.3
	C111.4,210.9,112.1,210.2,112.4,210.7z M111.9,203.4c-1.6,0.3-1.8-1.6-1-2.4c0.3,0,0.7,0.1,1,0.1C112.2,201.6,112,202.5,111.9,203.4
	z M110.2,212.7c0.6-0.1,1.4,0,1.6,0.4C111.5,213.2,110.1,213.3,110.2,212.7z M111.1,199.3c0.1,0.6-1.1,0.3-1.1,0
	C110,199,110.7,199.3,111.1,199.3z M109.3,212.8c-0.3,0.5-1.9,0.4-2.6,0C106.7,212.2,108.6,212.4,109.3,212.8z M107.6,233.2
	c0-0.1,0-0.3,0.1-0.4C108.2,232.7,108.1,233.5,107.6,233.2z M106.5,246.8c-0.7-0.2-0.7-0.7-1.4-0.9
	C105.5,244.9,107.5,246,106.5,246.8z M106.8,198.7c0.2,0.1,0.1,0.3,0.1,0.5C106.5,199.1,106.5,198.8,106.8,198.7z M106.2,204.3
	c0.4,0.2,0.4,0.9,0,1C105.8,205.2,106.2,204.7,106.2,204.3z M106,206.5c0.6,0.1,0.3,0.9,0,1C105.7,207.4,106.1,206.8,106,206.5z
	 M105.7,208.5c0.7,0.8-0.6,2.8-2,3.3C104.3,210.5,105.4,209.8,105.7,208.5z M102.3,210.1c-0.3,0.2-1.1,0.2-1.1-0.3
	C101.8,209.7,101.8,209.8,102.3,210.1z M96,222.9c0.2,0.1,0.3,0.3,0.5,0.3c-0.1,0.4-0.4,0.7-1.2,0.5C95.2,223.1,95.8,223.2,96,222.9
	z M93.5,223.2c0.4,0.1,0.4-0.2,0.9,0c0,0.3-0.1,0.5-0.3,0.6C93.6,223.8,93.4,223.6,93.5,223.2z M90.1,233.9c-0.6-0.3-1-1-0.4-1.2
	c0.1,0.1,0.3,0.2,0.5,0.2C90.2,233.2,90.1,233.5,90.1,233.9z M93.1,231c-0.4-0.6,0.6-0.9,0.6-1.6c1.6,1.1,4,0.4,5.6,1.5
	c0.3-0.5,1.4-0.4,1.9,0C100.5,233.3,95.6,230.7,93.1,231z M101,252.2c-1-0.2-0.2-0.8,0.1-1C101.9,251.5,101,251.8,101,252.2z
	 M102.6,245.4c-1.6-0.8-0.7-2.2-1-3.7C102.1,242.7,103.2,244.4,102.6,245.4z M99.1,213.5c0.4-0.7,2.8-1.2,4.6-0.7
	C102.7,213.6,100.8,213.4,99.1,213.5z M103.2,252.6c-0.7-0.2-0.2-0.8,0.1-0.9C104.2,252,103.2,252.4,103.2,252.6z M105,252
	c0.8-1.9-2.8-3-1.5-5.1c0.7,2.1,1.9,3.9,3.7,5.4C106.7,252.5,105.4,252.3,105,252z M107.2,241.8c1,1.5,3.9,0.1,5.3,1.2
	c0.4,0,0.4-0.3,0.5-0.6c-0.7-0.6-1.8-0.1-2-0.7c0.2-0.3,0.7-0.3,1-0.5c0.6,0.5,1.7,0.5,2.2,0.2c-0.4-0.3-0.5-0.7-0.6-1.1
	c2.1-0.6,5.9,1.1,8.6,0.6c-0.2,0.2-0.3,0.6-1,0.4c-0.1,0.3,0.3,0.4,0.1,0.8c-2.1,0.3-4.9,0.6-7.2,0.2c-0.6,0.7-1.3,1.3-1.6,2.2
	C111.1,244.4,105.3,243.9,107.2,241.8z M116.5,245.9c-1.1-0.2-0.9-2.4-0.2-3C117.3,243.1,117.9,245.7,116.5,245.9z M114.6,244.3
	c0,0.2-0.1,0.3-0.1,0.5c-0.5,0-0.4-0.3-0.5-0.6C114.3,244.3,114.4,244.3,114.6,244.3z M110.2,252.3c-0.5,0.1-1.3,0.2-1.7-0.1
	c-0.1-0.7,0.7-0.7,1.6-0.5C110,251.9,110.4,251.9,110.2,252.3z M112.6,252.6c0-0.3,0.1-0.5,0.1-0.8c0.2,0,0.4,0,0.6,0.1
	C113.2,252.3,113.2,252.7,112.6,252.6z M116.5,253.1c-0.8,0.2-1.3-0.2-2-0.4c0-0.3,0.1-0.5,0.1-0.8c0.6-0.3,1,0.1,2.1,0.2
	C116.8,252.6,116.8,252.6,116.5,253.1z M115.4,248c0-0.1,0-0.3,0.1-0.4C116,247.5,115.9,248.3,115.4,248z M120.6,254.8
	c0-0.9,0.3-1.4,0.6-1.8C121.9,253.4,121.9,255.2,120.6,254.8z M123.8,247.3c-3.6-0.7-8,0.3-11.7-1.6c2-0.8,6.6,1.4,8.7,0.1
	c1.4,0.2,2,0.2,3.1,0.5C123.9,246.7,123.9,247,123.8,247.3z M125.8,242.9c-0.8-0.5-2.6-0.1-2.5-1.3c1.4,0.1,2-0.2,3,0.1
	C126.3,242.2,125.9,242.4,125.8,242.9z M130,240c-4.1-0.9-8,1.5-11.2-1.1c0.8-0.3,2.4,0.3,2.4-0.7c0.5,0.2,1.1,0.3,1.2,0.7
	c1.8-0.2,3.1-0.6,4.9-0.8c0.1,0.3,0.2,0.6,0.6,0.7c0.7,0,0.8,0,1.9,0.1C129.7,239.4,130.2,239.5,130,240z M129.2,205.6
	c0.1-0.2,0.6-0.1,0.5-0.6c0.6-0.2,0.5,0.6,0.7,0.2C131,205.7,129.7,206,129.2,205.6z M131.3,232.5c-0.4-0.1-0.4-0.4-0.1-0.5
	C131.5,232.1,131.6,232.4,131.3,232.5z M131.8,213.9c1.5,0.3,3.6-0.3,5,0.5c-1.2,0.9-3.7,0.4-5.1,0
	C131.7,214.3,131.8,214.1,131.8,213.9z"/>
<path class="st0" d="M186.2,279.8c1.2-0.5,2.6-0.6,4.3-0.1c0.1,0,0.1,0,0.2,0c0.9,0,1.7-0.1,2.5-0.1c0.1-10,0.1-20.1,0.2-30.1
	c-3,0.4-6.7,1.3-9.6,1.7c2.5-1.3,6.3-1.5,9.6-2.1c0-1.8,0-3.7,0-5.5c-0.4,0-1.1-0.2-1.5-0.2c0-0.2,0.3-0.2,0.3-0.5
	c0.6,0.2,0.9,0.1,1.2,0.3c0-0.6,0-1.2,0-1.8c-2-0.3-3.6-0.6-4.1-0.9c-0.4-0.2-0.9-0.8-0.4-1.2c1.6,0.5,3,0.9,4.5,1.1c0,0,0,0,0,0
	c-4.1-2.2-7.7-5.4-10-9.3c-0.4,0.6-1.1,1-1.9,0.6c-0.4,0.3-0.5,0.5-0.9,1c-0.4-0.5-0.9-0.2-1.8-0.4c-1.3-1,0-2.4,1.9-1.5
	c0.4-0.7,0.9-1.2,1.7-1.5c-0.2-0.4-0.4-0.8-0.5-1.2c4.5,0.8,8.5,2.9,11.5,5.9c0-4.2,0.1-8.5,0.1-12.7c-3.6-1.5-8.3-3-13.7-4
	c-0.4-0.1-0.7-0.1-1-0.2c0.1,0.6-0.1,1.2-1.1,1.1c-0.2-0.4,0-0.9,0.3-1.2c-6.1-0.9-11.4-0.9-15.5-0.5c-0.5,1.6-0.9,3.2-1.4,4.8
	c0.5,0,0.9,0.1,1.4,0.1c-0.5,0.3-1,0.4-1.5,0.5c-1.4,5-2.8,9.9-4.2,14.9c0.4,0,1,0.2,0.8,0.6c-0.4,0-0.6-0.2-0.8-0.3
	c-1.8,6.3-3.5,12.5-5.3,18.8c0.2,0.3,0.1,0.6,0.1,1c-0.1,0-0.2,0-0.4,0.1c-1.4,4.8-2.7,9.6-4.1,14.4c6.2,2.7,14.6,5.7,25,7.2
	C177.1,279.5,181.9,279.8,186.2,279.8z M190.6,241.4c0,0.6,0.9,0.9,1.5,1.3c-0.5,0.7,0.1,0.8,0,1.5c-0.7,0-1-0.2-1.3-0.4
	c1.2-0.7-0.6-1.3-1.3-1.4C189.6,241.8,189.8,241.3,190.6,241.4z M189.3,222c0.5,0,0.9,0.1,1.1,0.3c0,0.4-0.1,0.6-0.5,0.7
	C189.4,222.8,189.2,222.5,189.3,222z M183.7,221.2c0.9,0.1,1.3,1,0.7,1.5C183.7,222.5,183.2,221.7,183.7,221.2z M153.9,268
	c-0.2,0-0.1-0.3-0.1-0.4C154.5,267.6,154.1,267.9,153.9,268z M153.9,267.1c0.1-0.3,0-0.7,0.3-0.9c1.1,0.1,1.1,0.7,1.1,1.3
	C154.6,267.5,154.3,267.3,153.9,267.1z M157,256.2c-0.7,0-0.6-0.5-0.3-0.7c0.3,0,0.3,0.2,0.5,0.2C157.3,256,157,256,157,256.2z
	 M171.3,245.4c0.2-0.6-0.2-0.9,0-1.5c0.4,0,1.4-0.1,1.3,0.4c0.8-0.6,1.8-0.1,2.8,0.4C175.3,246.7,173.1,245.6,171.3,245.4z
	 M181,252.4c-0.6,0.1-1.2-0.2-1.8-0.4c0.3-0.6-0.2-0.8-0.6-1.1c-0.7-0.2-0.6,0.2-1.1,0.1c-0.1-0.3-0.2-0.6,0-1
	c2.1,0.1,2.5,0.2,4,1.2C181.3,251.6,181.4,252.2,181,252.4z M184.8,271.1c-0.2,0.9-1.8,0-1.7-1.1C184.1,269.8,184,271,184.8,271.1z
	 M185.2,240.9c-0.3-0.6-1.8-1.4-2.5-1c-0.2-0.2-0.6-0.6-0.3-0.8c1.2,0.4,2.3,0.8,3.2,1.4C185.7,240.9,185.2,240.7,185.2,240.9z
	 M188.1,242.8c0.2,0,0.5,0.1,0.7,0.1c0,0.2-0.1,0.4-0.1,0.6C188.4,243.3,187.9,243.2,188.1,242.8z M181.2,225.9
	c0.2,1-2.9,1.1-4.8,0.5c-0.2,0.3-0.5,0.8-0.4,1.3c-0.6,0-0.2-0.8-0.1-1.4c-0.6-0.3-1-0.6-1-1C175.2,225.2,181,225,181.2,225.9z
	 M174.1,217.4c0.6,0.4,0.6,0.4,1.2,0.6c0,1.5-1.9,1.2-3.2,1C172.2,217.9,173.9,218.4,174.1,217.4z M172.2,233.8
	c0.2,0.1,0.1,0.3,0.1,0.5c-0.2,0-0.4,0-0.6-0.1C171.6,233.8,172.1,233.9,172.2,233.8z M169.2,225.1c0.4,0.1,0.4,0.4,0.3,0.7
	C169.1,225.7,169.1,225.4,169.2,225.1z M168.4,231.9c-0.6,0.3-0.5-0.5-1.2-0.6C167.6,230.9,168.4,231.4,168.4,231.9z M158.9,238
	c-2.5-1.8,1-3.3,3.1-3.4c0.1-0.4-0.3-0.7-0.2-1.1c0.8,0,0.8,0.5,1,0.8c3.2-0.9,8.8-0.8,11.5,1.3c1.8-0.6,3,1,4.6,0.6
	c1.2,0.8,3.6,1.2,4.7,1.5c0.8,0.9,3.8,0.7,4.1,1.9c-2.4-0.8-4.8-0.6-7-1.5c-0.3,0.1-0.5,0.3-0.5,0.6c-6.8-3.8-17.1-5.3-21.9-1.3
	C158.8,237.4,159.6,237.5,158.9,238z M172,236.9c-0.5-0.1,0-0.4,0.1-0.5C172.5,236.5,172,236.9,172,236.9z M163.4,244
	c0-0.2,0.1-0.3,0.1-0.5c0.4,0,0.7,0.1,0.9,0.3C164.4,244.2,163.9,244.1,163.4,244z M165.4,249.5c0.9,0.2,1.6,0.4,2.4,0.6
	C167.4,251.6,165,250.9,165.4,249.5z M172.4,240.3c-0.1,0.1-0.3,0.2,0,0.3c-1,0.3-2.4-0.2-2.9-0.8
	C170.6,239.8,171.7,239.9,172.4,240.3z M170.6,253.6c1.4-0.3,2.5,0.4,2.2,1.6C171.5,255.4,170.4,254.5,170.6,253.6z"/>
<path class="st0" d="M244.4,238.4c-0.9,0.9-1.7,1.9-3.5,1.9c0,0.4,0.6,0.5,0.4,1c-1-0.1-1.7-0.4-2.3-1c-1.6,0.3-1.8,2-3.5,2.2
	c-0.8-1.5-0.2-2.8,0.9-3.7c-0.3-0.2-1.5-0.1-1.4-0.7c-0.1-0.5,0.8,0,1-0.2c0.2-1.6,0-3.8,2-4.5c0.5,0.6,0,1.8,1,2.2
	c0.5,0.1,0.5-0.3,0.8-0.4c1.8,2.2,6.5,1.1,7.1-0.8c1.5,0.2,2.3-0.3,3.5-0.6c0-0.4,0-0.8,0-1.3c-0.3-0.4-0.5-0.8-0.7-1.2
	c-4.3-1-9.1-2-14.4-2.6c-5.6-0.7-10.8-1-15.5-1c-0.3,1.7-0.5,3.4-0.8,5.1c0,0.3,0,0.5-0.1,0.6c-1,6.3-2,12.6-2.9,18.9
	c0.4-0.1,0.7-0.3,1.3-0.3c0.3,1.2-0.8,1.9-1.5,1.7c-0.1,0.8-0.3,1.6-0.4,2.5c0.1,0,0.1,0,0.2,0c0,0.5-0.3,0.6-0.2,1.1
	c0,0-0.1-0.1-0.1-0.1c-1.3,8.4-2.6,16.8-3.9,25.2c0,0,0.1,0,0.2,0.1c3,1.3,5.3,2.2,5.3,2.2c1.5,0.6,6.9,2.3,14,3.1
	c3.4,0.4,6.7,0.5,9.8,0.5c0-0.1,0.1-0.2,0.1-0.3c0.4-0.1,0.4,0,0.4,0.3c3.9,0,7.5-0.4,10.8-0.8c-0.3-11.1-0.6-22.2-1-33.3
	c-0.5,0-1,0.8-1.3,0c-0.5,0-0.4,0.9-0.4,1.7c-0.6-0.6-1.2-2.4-0.6-3.6c1.3,0.6,1.3-0.3,1.9-1.1c0.2,0.1,0.3,0.3,0.4,0.6
	c0-1.3-0.1-2.5-0.1-3.8c-1.7-0.6-3-1.2-3.7-2.4c0.4-0.4,0.6-0.8,0-1.2c0.3-0.4,0.8-0.6,0.9-1.1c0.6,0.5,1.9,1,2.7,1.5
	c-0.1-3.5-0.2-7-0.3-10.5c-2.3,1.4-5.9,2.4-8.8,3.5C242.2,238.2,243.5,238.5,244.4,238.4z M244.2,232.1c-1.2-0.1-2.1-0.5-2.3-1.9
	C243,230.3,243.9,230.9,244.2,232.1z M248.9,260.8c0.1,0,0.3,0,0.6,0.1v0c0,0,0,0,0,0c0.4,0.1,0.9,0.3,1,0.4c-0.1,0.1-0.4,0.1-0.8,0
	c0.2,0.6-0.4,0.5-0.4-0.1c-0.2,0-0.4-0.1-0.6-0.2C248.9,261,249.1,260.9,248.9,260.8z M242.9,260.6c-0.2-0.9-0.1-0.7,0.2-1.4
	c0.4,0,0.5,0.3,0.9,0.3C244.1,260.5,243.6,260.7,242.9,260.6z M244,269.6c-0.3-0.1-0.4-0.3-0.3-0.6C244.2,269,243.9,269.4,244,269.6
	z M242.7,251.3c0.4,0,0.2,0.6-0.2,0.4C242.4,251.4,242.7,251.5,242.7,251.3z M239.8,252.9c-0.5-0.5,0.2-1.1,0.7-1
	C241.4,252.3,240.4,253,239.8,252.9z M239.9,250.9c0.2,0.8-0.5,0.5-0.9,0.5C239.1,251,239.5,250.8,239.9,250.9z M236.5,252.9
	c0.4-0.5,1.3-0.3,1.1,0.8C237,253.7,236.4,253.7,236.5,252.9z M235.9,231.8c-0.1,0.4,0,1-0.4,1.2c-0.8-0.3-1.2-0.1-1.8-0.5
	C233.6,231.2,235.1,231.7,235.9,231.8z M231,237c1.7-0.7,2.4,1.2,3.6,1c0,0.4,0.4,0.8,0,1.3C233.1,238.9,230.1,238.8,231,237z
	 M231.4,254.8c0-0.5,0.5-0.6,1.2-0.5C233,255,232,255.1,231.4,254.8z M230.4,251.5c-0.1,0.6-0.9,0.2-1.1,0
	C229.4,250.6,230.2,250.9,230.4,251.5z M226.3,249.4c-0.2-0.1-0.4-0.2-0.3-0.4C226.4,249,226.3,249.2,226.3,249.4z M225.5,236
	c0.7,0.3,0.3,0.9,0,1.3C224.4,237.1,224.8,236.2,225.5,236z M224,228.3c0.5,0.4-0.4,0.6-1,0.5C222.8,228.2,223.7,228.6,224,228.3z
	 M220.2,239c0.3,0,0.4-0.1,0.4-0.3c0.3,0.1,0.2,0.7,0.2,1.1c-0.2-0.1-0.3-0.3-0.6-0.3C220.2,239.4,220.2,239.2,220.2,239z
	 M219.9,244.2c0.4-0.2,0.3,0.1,0.9,0.1C221,245.2,219.5,244.9,219.9,244.2z M220.7,251.5c0.1-0.3-0.5,0-0.6,0
	c-0.2-0.9,2-1.4,1.5-2.4c1.1,0.4,1.2-0.1,1.6-0.4c1.2,0.3,0.8,1.3,2,1.5c0.3,1.6,0,2.2-1,3.2c0,0.1,0,0.2,0,0.3
	c-0.1,0-0.2,0-0.2-0.1c-0.1,0.1-0.3,0.2-0.4,0.4c-0.3-0.1-0.4-0.3-0.7-0.4c-1.1,0.7-1.8,1.8-2.8,2.5c-0.5-0.6-1.3-0.2-1.7,0.1
	c-0.5-0.6,0.6-0.8,0.8-1.3C217.5,253.5,219.7,252.3,220.7,251.5z M219.5,271.4c0.1,0.5-0.4,0.5-1,0.4
	C218.2,271,218.9,271.2,219.5,271.4z M217.6,252c-0.6-0.3,0-1.4,0-1.9C218.5,250.4,218.3,251.7,217.6,252z M217.4,247.6
	c0.2,0,0.4,0,0.6,0c0.2,0.7,0.4,1.9-0.2,2.2C217,249.8,217.2,248.3,217.4,247.6z M214.2,266.1c-0.5,0-0.1-1-0.2-1.4
	c0.3-0.1,0.4,0.3,0.6,0.3C214.8,265.8,214.2,265.6,214.2,266.1z M215,260.6c0.1,0,0.3,0,0.4,0c0,0.2,0,0.3-0.1,0.5
	c-0.1,0-0.3,0-0.4,0C215,260.9,215,260.8,215,260.6z M218,281.5c-0.7-0.3-2.1,0.1-2.5-0.6c0.5-0.4,1.9,0.1,2.5-0.1
	C218.5,280.8,218.1,281.2,218,281.5z M215.9,277.2c0.1-0.6-0.6-0.3-0.6-0.8c2.6-0.9,7-2.8,9.6-1.4
	C222.9,277.3,218.6,275.3,215.9,277.2z M224.8,274c-0.4-0.4,0.3-0.7,0.5-1C225.8,273.3,225.4,274,224.8,274z M225.8,282.1
	c-0.2,0-0.1-0.3-0.1-0.4c0.2,0,0.4,0,0.5,0.1C226.3,282.1,225.9,281.9,225.8,282.1z M227.7,281.6c-0.9-0.3-1.8-0.7-1.4-2.1
	c0.6,0.1,1.1,0.2,1.7,0.3C227.8,280.4,227.7,281,227.7,281.6z M230,283c0.6,0.2,0.5-0.4,1.1-0.3C231.4,284,229.8,284.3,230,283z
	 M235.1,261.4c-0.1,1.4-0.9,2-2.1,1.9C231.6,261.2,234.1,260.2,235.1,261.4z M234,274.7c-0.3-0.2-0.7-0.4-0.6-1.1c0.4,0,0.7,0,1.1,0
	C234.3,274,234.1,274.3,234,274.7z M235.1,271.9c0.5-0.1,0.3,0.5,0.6,0.5C235.6,273.2,234.9,272.5,235.1,271.9z M237,280.8
	c-0.3-1.4,0.8-2.1,1.5-1.4C238.4,280.4,237.8,280.7,237,280.8z M237.8,272.2c0.3,1.9-0.5,2.5-1.1,3.3c-2.3-1.7,1.7-6.6,2.5-3.3
	C238.8,272.2,238.3,272.2,237.8,272.2z M237.4,269.2c0.3-0.3,0.9-0.4,1.6-0.3c0,0.6-0.4,0.8-0.9,0.9
	C237.6,269.7,237.9,269.2,237.4,269.2z M239.4,269.7c0-0.5-0.1-0.5,0.3-0.9C240.3,268.9,240.1,270,239.4,269.7z M241,263.4
	c-1.2,0.5-0.9-2.1-0.6-2.8c0.7-0.2,0.9,0.3,1.3,0.5C241.6,262.1,241.3,262.7,241,263.4z M220.1,257c4.3-0.5,12.2,1.4,17,0.1
	c0.2-0.4-0.7-0.3-0.5-0.7c1.7,0.4,4.4,0.7,5.2,1.8C234.7,257.3,228,259.2,220.1,257z M242.7,274.7c-0.7-2.2,0.3-4.4,2.1-4.1
	C245.3,272.4,244.7,275.1,242.7,274.7z M245.8,263.5c-0.5-0.3-1.7-0.6-1.2-1.1C245.7,262.4,246.1,262.8,245.8,263.5z M243.6,258.9
	c0.5,0.1,2.2,0.6,2.7,1C245.5,259.6,243.9,259.5,243.6,258.9z M245.9,253.7c0.3,1.2-0.7,0.8-1.3,0.8
	C244.3,253.4,245.6,253,245.9,253.7z M244.6,245.7c-0.5,0-0.6,0.5-1.3,0.3c0-0.3,0-0.5,0-0.8C243.7,244.7,244.8,244.6,244.6,245.7z"
	/>
<path class="st0" d="M303.1,284.9c-0.3-0.6-0.4-0.5-0.2-1.4c0.5,0,0.7,0.4,1.1,0.5c-0.1,0.3-0.2,0.5-0.4,0.7c3.8-0.9,7.4-2,10.5-3.1
	c-0.6-5.1-1.2-9.7-1.7-13.8c-0.2,0-0.4-0.3-0.3-0.4c0.1,0,0.2,0,0.2,0c-1.1-8.8-1.9-15.3-2.6-20.4c-0.1,0-0.3-0.1-0.4-0.2
	c0-0.4,0.1-0.8,0.2-1.1c-1-7.7-1.7-12-2.3-16.3c-0.9-0.1-1.8-0.2-2.7-0.3c-1.1,0.5-2.4,1-3.4,1.7c-0.9-0.1-0.4-0.8-0.2-1.1
	c-0.6-0.2-0.6,0.1-0.8,0.3c0.1-0.4,0.9-0.8,1.8-1.1c-2.2-0.2-4.6-0.3-7-0.3c0.1,0.1,0.3,0.2,0.6,0.2c-0.5,0.9-1.2,0.5-2,0.1
	c0.1-0.1,0.1-0.2,0.2-0.3c-2,0-3.9,0.1-5.7,0.2c-0.2,1.3-2.2,0.4-3.2,0.7c-0.3,0.2-0.3,0.9-0.4,1.4c-1,0.1-1.7-0.1-2.3-0.5
	c0-0.4,0.1-0.7,0.2-1c-1.6,0.2-3.2,0.4-4.6,0.7c0,0.9,0,1.8,0,2.7c2,0.8,4,1.7,5.7,2.6c-1.9,0.1-3.9,1-5.8,1.6
	c-0.1,5.6-0.2,11.1-0.4,16.7c1.7,1,3.2,2.1,4.3,3.8c-1.3-0.7-2.9-1.4-4.4-2.2c0,0.3,0,0.5,0,0.8c0.2,0,0.4,0,0.6,0.2
	c0,0.6-0.2,1-0.6,1.1c-0.4,10.1-0.9,20.1-1.4,30.2c6.6,0.2,14.8-0.2,24-2C300.7,285.5,301.9,285.2,303.1,284.9z M302.3,267.4
	c-0.6-0.1-0.6-0.5-0.4-1C302.6,266.5,302.5,267.3,302.3,267.4z M302.2,249.4c0.6,1.8-0.8,2.8-1.3,4.3
	C298.2,253.5,299.6,248.2,302.2,249.4z M300.1,274.4c-0.2,0-0.4,0-0.6,0c0-0.2,0-0.4,0-0.5C299.9,273.8,300.2,273.9,300.1,274.4z
	 M299.9,247.9c0.7,0,0.6,0.4,0.9,0.5C300.4,248.7,299.5,248.3,299.9,247.9z M301.1,248.7c0-0.2,0.1-0.4,0.1-0.6
	c0.3,0,0.4,0.2,0.7,0.2C301.8,248.6,301.5,248.8,301.1,248.7z M302.9,253.1c-0.7,0.4-1.1,0.8-1.3-0.5
	C302,252.1,303.1,252.1,302.9,253.1z M304.1,254.9c1.7,0,0.6,2.7-0.1,3c-0.3-0.3-0.7-0.5-1.3-0.6
	C302.8,255.9,303.6,255.7,304.1,254.9z M301.9,266.1c-0.1,0.4-0.5,0.2-0.9,0.3C300.9,265.3,301.7,265.5,301.9,266.1z M303.9,269.4
	c-0.4,0.2-0.7-0.2-1.3-0.3c0-0.2,0-0.3,0.1-0.5c0.4-0.2,0.9,0.1,1.3,0.2C303.9,269,303.9,269.2,303.9,269.4z M303.6,259.4
	c-0.8-0.3,0.2-1,0.9-0.9C304.4,259,303.7,258.8,303.6,259.4z M305.9,263c0.6,0.4-0.4,2-1.3,1.7C304.5,263.3,305.5,263.6,305.9,263z
	 M306.3,269.4c-0.2,0.6-1.5,0-1.2-0.6C305.5,268.7,305.9,269.2,306.3,269.4z M305.7,281.6c-1.6-0.3-0.3-2.4-0.4-3.9
	C306.1,278.6,305.9,280.3,305.7,281.6z M306.1,276.4c-0.6,0-0.6-1.6,0.2-1.4C306.4,275.6,306.3,276,306.1,276.4z M304,261.1
	c0.3-2.6,2.5-1.9,3.6-1.7C307.4,261.3,305.5,261.9,304,261.1z M307.5,256.6c0.6,0,0.4,1-0.3,0.6
	C307.1,256.8,307.5,256.9,307.5,256.6z M306.3,236c0.2,0,0.4,0,0.6,0c0,0.3,0,0.5,0,0.8C306.4,237,306.2,236.7,306.3,236z
	 M300.8,237.6c0.1,0.6,0,1.1-0.2,1.4c-0.8,0.3-1.2-1.4-1.7-0.5c-0.3-0.5-0.1-0.9,0-1.4C299.4,237.4,300.1,237.5,300.8,237.6z
	 M299.1,230.4c-1.3,0.1-2.7,0.8-3.2-1.1C296.9,229.2,298.9,228.8,299.1,230.4z M307.2,248.4c0,1.6-1.4,1.5-2.3,1.9
	c-0.2-3.9-4.1-4.8-6.8-7.2c-1.6-1.4-3.3-4.7-4.7-5c-1.2-0.3-3.2,2-3.4-1.1C298.1,234.3,300.4,246.9,307.2,248.4z M292.7,250.3
	c-0.8,0.1-1-1.8-0.4-1.9C292.9,248.8,293,249.5,292.7,250.3z M289.3,239c0,0.4-0.2,0.6-0.3,0.9C287.8,239.6,288.5,238.9,289.3,239z
	 M279.8,247.8c-0.5-0.2,0.2-0.4,0.1-0.6C280.7,247.2,279.9,247.6,279.8,247.8z M280.4,243.6c1.3,0.7,3.6-0.4,3.6,1.2
	C282.6,245.1,279.9,245,280.4,243.6z M282,248.2c-0.5-0.2,0.1-0.5,0.1-0.8c0.3,0,0.5,0.1,0.7,0.1C283.1,248.3,282,247.7,282,248.2z
	 M286.1,257.9c-1.3,0.8-4.2,1-5.5,0.1C281.9,257.7,284.6,257.8,286.1,257.9z M283.5,265c0.1,0.4-0.3,0.3-0.3,0.6
	c-0.4-0.1-0.4-0.4-0.3-0.7C283.1,265,283.3,265,283.5,265z M281.1,266.3c0.6,0,0.3,0.3,0.1,0.4C281,266.7,281.1,266.5,281.1,266.3z
	 M284.2,275.8c-0.3,0-0.6,0-0.9,0c-0.2-0.9,0.6-0.5,0.4-1.4C284.5,274.1,284.1,275.3,284.2,275.8z M285.7,259.2
	c0.7,0.3,1.5,0.3,1.5,1.4C286.3,260.6,285.7,260.3,285.7,259.2z M286.5,276.4c-0.2-1.4,0.6-1.5,1.3-1.1
	C287.8,276.1,287.3,276.5,286.5,276.4z M287.5,254.8c0.1-0.5,1-0.1,1-0.6c0.8,0.4,0.9,1.1,1.1,1.7c0.9,0,1.7-0.2,2,0.6
	c0.6,0,0.7-0.4,1.4-0.3c0.1,0.6,1.3,0.4,1.6,0.6c0.1,0.7,0,1.4-0.8,1.5C291.7,257,288.6,257.2,287.5,254.8z M291.2,262.5
	c-0.6-1,0.1-1.9,0.6-2.2C292.9,260.6,292.1,262.9,291.2,262.5z M288.3,261.1c0.1-0.3,0.5-0.2,1-0.1
	C289.1,261.2,288.6,261.4,288.3,261.1z M292.1,277.2c-0.4-0.1-0.4-0.8-0.9-0.8c0-0.6,0.8-0.1,1.1-0.3
	C292.1,276.3,292.1,276.7,292.1,277.2z M293.3,277.5c-0.2,0-0.2-0.3-0.4-0.3c0-0.2,0.2-0.3,0.2-0.5c0.2,0,0.2,0.3,0.4,0.3
	C293.5,277.1,293.3,277.2,293.3,277.5z M290.7,267.1c1.1-0.4,4.1,0.5,3.7,2.4C292.6,270.4,291,268.6,290.7,267.1z M294.4,282.4
	c0-0.8-0.7-1.3-0.6-2.1c1.1,0.5,0.8,1.6,1.5,2.3C295.1,282.9,294.9,282.3,294.4,282.4z M299.1,265.7c-0.5-0.1-1.1-0.1-1.3-0.3
	C297.9,264.6,299.4,265,299.1,265.7z M298,278.1c0.8,0.6,2.2,1,2.4,1.9c0.9,0.1,1.1,0.4,1.7,0.3C300.9,280.8,297.8,279.4,298,278.1z
	"/>
<path class="st0" d="M363.7,242.9c-0.5,0.3-1.1,0.5-1.9,0.5c-0.1-0.7,0.5-1.2,1.3-1.5c-2.1-3.5-4.2-7-6.3-10.4c0,0,0,0-0.1,0
	c0,0,0,0,0-0.1c-2.9-4.7-5.7-9.5-8.6-14.2c-0.3-0.1-0.6-0.3-0.8-0.5c-0.5-0.3-1-0.7-1.4-1c-3.3,1.1-6.8,2.5-10.5,4.3
	c-3.1,1.5-5.9,3-8.5,4.5c0.5,0.2,0.9,0.5,1.4,0.6c0.3,3-1.9,2.1-3.2,2.5c0.3,1.1,0.6,2.7,0.7,4.1c0.8,2,1.7,4.1,2.5,6.1
	c1.2-0.8,2.1-1.7,4.3-1.3c-0.7,1.3-2.1,2.1-3.8,2.6c1.1,2.6,2.2,5.3,3.3,8c0-0.1,0-0.2,0-0.4c0.6-0.3,0.6-0.3,1.3,0v1.4
	c-0.4,0-0.7,0-0.9-0.2c0.4,0.9,0.8,1.8,1.1,2.8c2.1-2,7-3.7,7.9,0.2c0.7,0,1.4,0,2-0.1c-0.5,0.3-1.2,0.6-1.9,0.7c0,0.3,0,0.5,0,0.8
	c1.1,0.5,6.7-1.2,5.7,3c-1.8-0.1-3.2-0.8-4.5-1.7c-0.6,0.8-1.1,2.3-2.1,1.7c-0.3-1.5,0.6-1.6,0.6-2.8c-0.2-0.4-0.5-0.7-0.8-0.9
	c-1.4,0.1-3,0-4.5-0.3c-0.7,0.2-1.5,0.4-2.1,0.4c0.1,0.4,0.3,0.7,0.5,1.1c0.4-0.2,1-0.4,1.9-0.4c0.2,2-0.3,2.7-0.9,2.8
	c0.9,2.2,1.8,4.5,2.8,6.7c0.9-1.7,1.4-3.9,2.4-5.5c1.6,0.9,0.7,4.1-0.9,4.1c-0.3,0.9-0.6,1.9-0.9,2.8c0.3,0.6,0.5,1.2,0.8,1.8
	c0.1,0,0.2,0.1,0.3,0.1c-0.1,0.1-0.1,0.2-0.2,0.2c0.3,0.7,0.6,1.4,0.9,2c0.9,0.7,1.7,1.5,1.3,2.4c-0.1,0-0.2-0.1-0.4-0.1
	c0.7,1.7,1.4,3.3,2.1,5c0.3-0.5,0.9-0.7,1.3-0.2c-0.2,0.5-0.4,1.1-0.8,1.3c0.5,1.3,1,2.6,1.6,3.8c1.2-0.5,2.3-1,3.4-1.5
	c-0.1-0.2-0.3-0.4-0.3-0.8c-0.2-0.1-0.3-0.1-0.4,0v0.3c-0.2,0-0.3-0.1-0.4-0.2c0,0-0.1,0-0.1,0c0,0,0.1,0,0.1-0.1
	c-0.1-0.3-0.1-0.8-0.2-1.1h0.6v0.8c0.3-0.1,0.5-0.1,0.9-0.1c-0.1-0.5-0.1-1,0.2-1.2c0.2,0.1,0.4,0.3,0.6,0.3v1
	c0.4,0,0.8,0.1,1.2,0.1c0,0.1,0,0.1,0,0.2c5.2-2.5,8.8-4.6,11.2-6.1c1.1-0.7,5.2-3.4,11-6.6c0.5-0.3,0.9-0.5,1.3-0.7
	c0.7-0.4,0.9-1.2,0.5-1.9C371.3,255.6,367.5,249.3,363.7,242.9z M331.6,243.1c-0.6-0.2-1.2-0.3-1.1-1.4
	C331.4,241.6,331.8,242,331.6,243.1z M345.9,276.6c-0.2-1,0.5-1.4,0.9-0.8C346.8,276.5,346.4,276.7,345.9,276.6z M356.3,231.8
	c-0.7,1.1-1.8,1.7-3,2.2C353.5,232.2,354.9,232,356.3,231.8z M352.5,231c0.5-0.1,0.7,1.9-0.2,1.4C352.1,231.6,352.6,231.6,352.5,231
	z M346.3,232.3c0.4-0.1,0.6,0.2,0.9,0.3c0.2,0.8-0.3,0.7-0.2,1.4C346.2,234.2,346.3,233.2,346.3,232.3z M346.3,238.7
	c0.5,0,0.1,1,0.2,1.4c-0.4-0.3-0.6-0.7-1.1-0.8C345.5,238.2,346.3,239.2,346.3,238.7z M335.7,221c2.3-0.3,3.7,0.9,4,3.9
	c-1-0.7-3.1-1.4-4.3-2.8C335.4,221.6,335.7,221.5,335.7,221z M336.1,227.6c-0.9-0.4-0.3-3.3-0.2-4.1
	C336.4,224.4,336.7,226.9,336.1,227.6z M334.7,229c0.3,0,0.7,0.1,1,0.1c0.1,0.8-0.7,0.4-0.8,1C334.4,230,334.7,229.4,334.7,229z
	 M328.7,224.3c0.5,0,0.5,1,0.2,1.4C328.3,225.7,328.4,224.7,328.7,224.3z M330.6,232.9c0.1,0,0.2,0,0.2,0c0,0.4-0.2,0.5-0.8,0.4
	c0,0,0,0,0-0.1c-0.5,0.3-1.1,0.5-1.7,0.5c0.1,0,0.2,0.1,0.3,0.1c-0.1,0.8-0.4,1.1-0.3,1.9c-0.4-1-1.5-1-1.4-2.1c0.2,0,0.5,0,0.7,0
	c1-1.9,3-2.5,5.3-2.7C332.4,231.5,331.6,232.3,330.6,232.9z M333.3,226.8c-0.8,0.3-0.3-1.1-0.4-1.7
	C333.6,224.8,333.8,226.5,333.3,226.8z M335,230.4c0,0.6-0.2,0.9-0.6,0.8C334.4,230.6,334.6,230.4,335,230.4z M334.6,247.8v-1.9h0.9
	C335.9,246.6,335.8,248.3,334.6,247.8z M337,244.2c-0.3,0-0.4,0.1-0.4,0.3c-0.6-0.2-1.2-1.6-0.6-2.5
	C336.8,242,337.6,243.2,337,244.2z M339.1,244.5c-0.8,0.2-0.8-1.3,0-1.1C339.4,244,339.1,243.8,339.1,244.5z M340.4,248.1
	c0.3-0.3,0.3-1.1,0.9-1.1c0,0.2,0.1,0.3,0.2,0.3C341.2,247.8,341,248.2,340.4,248.1z M338.9,231.2c-1.4,1.1,0,3.7-1.9,4.1
	c0.1-1.7,0.5-2.8,1.1-3.9c0-0.6-0.8-0.1-1.1-0.3c-0.1-1-0.5-1.3-0.2-2.2c2.5,1.2,4.5-0.5,7.4-0.3C344,232.8,340.1,230.2,338.9,231.2
	z M342,244.6c0.2-0.7,0.9-0.8,2-0.6C344,244.9,343.1,244.9,342,244.6z M349.9,262.2c-0.8-0.3-0.7-1.4,0.2-1.4
	C350.3,261.6,349.8,261.6,349.9,262.2z M349.9,254.2c0.3,0.1,0.2,0.7,0.2,1.1C349.6,255.2,349.6,254.6,349.9,254.2z M344.2,251
	c-0.1-0.3-0.2-0.6,0-1c6.1-0.4,9.7-3.3,15.5-4c0,0.7-0.9,1.3-1.6,1.6C354.2,249.2,349.7,250.7,344.2,251z M355.4,253.4
	c-0.1,0.9-0.3,1.6-1.3,1.4c-0.2-1.2,0.4-1.3,0.6-1.9C355.1,252.9,355.1,253.3,355.4,253.4z M352,254.2c0.5,0.1,0.5-0.5,1.1-0.3
	c0.1,0.6,0,1.1-0.2,1.4C352.2,255.4,351.9,255.1,352,254.2z M352.9,271.1c-0.5-1.1,0.5-2.2,0.4-3.6c1.9,1.8,4.6-0.5,6.6,1.4
	c0.3-1.1,1.5-1.3,2.1-0.5C361.5,273.7,355.6,269.7,352.9,271.1z M366.9,252.3c-0.1-0.5,0.7-0.4,1-0.1
	C367.7,252.4,367.3,252.3,366.9,252.3z"/>
<path class="st0" d="M416.9,253.6c-2.3-9.6-4.6-19.2-6.9-28.8c-2-0.4-4.1-0.8-6.1-1c0.1-0.8,0.2-0.7,0.4-1.7
	c0.8-0.4,1.4,0.9,1.9-0.5c1,0.9,2.1,1.3,3.4,1.5c-0.5-1.9-0.9-3.8-1.4-5.6c-2.8,0.8-6.1,0.9-8.8,2.1c-0.7-0.7-0.3-1.9-0.2-3
	c2.2,2,4.1-1,6.2-1.4c0.5-0.1,1.4,0.6,2.1,0.5c0.1,0,0.2,0,0.3,0c-1.1-4.6-2.2-9.3-3.4-13.9c-3.2,0.3-6.7,0.8-10.3,1.4
	c-4,0.7-7.7,1.5-11.1,2.4c0.1,0.6,0.1,1.2,0.2,1.8c0.9-0.2,2-0.2,3.2-0.1c-0.5,0.7-1.7,0.8-3.2,0.6c1.5,15.8,2.9,31.7,4.4,47.5
	c0.1,0,0.2,0,0.4,0c0.3,0.8,0.1,1.3-0.2,1.8c0,0.5,0.1,1,0.1,1.5c4.6-0.2,9.9-0.7,15.8-1.8C408.5,256,413,254.8,416.9,253.6z
	 M410.4,236.8c0.1,1.1-0.1,1.8-0.4,2.2c-0.2-0.2-0.5-0.3-0.9-0.3C409,237.4,409.3,236.6,410.4,236.8z M404.2,241.3
	c0.7-0.3,0.3,0.9,0.4,1.4C403.9,242.8,403.9,241.7,404.2,241.3z M390.6,244c-0.5,0-0.5-1-0.2-1.4C390.9,242.6,390.5,243.6,390.6,244
	z M392.1,245.1c-0.1,0-0.3,0-0.4,0c0-0.2,0-0.4,0-0.5c0.1,0,0.3,0,0.4,0C392.1,244.8,392.1,244.9,392.1,245.1z M394.9,244.8
	c-0.6,0.2-0.4-0.5-0.9-0.5c0-0.3,0.2-0.1,0.2,0c0.3-0.1,0.2-0.9,0.9-0.5C395.1,244.2,394.8,244.3,394.9,244.8z M391.7,220.5
	c0-0.4,0-0.7,0-1.1c1.7,0.2,4-1.7,5.7-0.5C396.3,221.1,393.4,220.9,391.7,220.5z"/>
<path class="st0" d="M457.5,245.5c-0.5-0.4-1.1-1.4-0.6-2.5c2.2,0.7,4.1,1,6,1.1c0.3-12,0.7-23.9,1-35.9c-1.5,1.2-4.5-0.1-6.1-2.2
	c-0.8-0.1-1.6-0.1-2.4-0.2c0,0,0.1,0.1,0.1,0.1c0,0.8,0,1.4-0.4,1.7c-0.6-0.2-0.9-0.8-0.8-1.9c-0.4,0-0.8-0.1-1.1-0.1
	c-3.7-0.3-7.3-0.5-10.8-0.7c-0.7,3.9-1.5,7.8-2.2,11.7c2.1-0.6,5.4-1.3,5.6,0c0.4,2.3-3.9,3.6-6,2.3c-1.1,5.9-2.2,11.8-3.3,17.6
	c0.1,0,0.2,0.1,0.3,0.1c0.1-0.1,0.3-0.2,0.4-0.4c0.2,0.1,0.2,0.4,0.2,0.7c1.5,0.8,3,1.5,4.7,2.1c0.2,0.1,0.4,0.2,0.7,0.3
	c0.4,0.1,0.9,0.3,1.3,0.4c0.4,0,0.8-0.1,1.2-0.5c1.5,1.4,4.2,1.5,5.5,1.7c1,1.7,4.4,0.3,4.9,2.8c-2.9-0.9-5.5,0.2-8.1-1.1
	c-0.3,0.2-0.5,0.7-0.4,1.4c-3.4-2.5-7.4-3.9-11.3-4c-0.9,4.9-1.8,9.8-2.8,14.7c4.4,0.6,9.2,1.1,14.3,1.4c5.4,0.4,10.5,0.5,15.2,0.4
	c0.1-2,0.1-4,0.2-6c-0.3,0.4-1.3-0.1-1.8,0.1c0-0.5,0.3-0.6,0.2-1.1c0.8,0.4,1.2-0.1,1.6,0.5c0-1.3,0.1-2.7,0.1-4
	C460.4,246.1,458.2,246,457.5,245.5z M462.9,237.7c-0.7,0.2-0.8-0.5-0.8-1.1c0.2-0.2,0.5-0.3,0.8-0.3
	C462.9,236.8,462.9,237.3,462.9,237.7z M463.5,217.8c0.1,2.3-1.4,1.7-2.8,1.7C460.2,217.2,462.5,217.2,463.5,217.8z M458.5,243.3
	C458.7,243.5,458.4,243.1,458.5,243.3L458.5,243.3z M448,205.6c1.1,0,1.7,1.8,1.1,3C448.1,208.4,447.4,206.8,448,205.6z
	 M447.3,229.1c-0.4,0.9-0.4,1.2-0.8,2.5c-0.5-0.9-1-0.1-2.1-0.3c-1.7-1.7-0.3-5.2,1.9-3.9c0.5-2.2,1.3-4.1,3-4.7
	C450.2,225.3,449.1,230.5,447.3,229.1z M449.6,215.8c0.2-2.4-1.1-3.6-0.8-6.1c1.9,1.3,1.3,4.5,2.5,6.4
	C450.8,217.1,450.5,215.4,449.6,215.8z M451.6,231.6c0-0.2,0-0.4,0-0.5c0.2,0,0.2-0.1,0.2-0.3c0.2,0.2,0.2,0.6,0.6,0.5
	C452.3,232.2,452.1,231.7,451.6,231.6z M437.4,242.1c0.5,0,0.1,0.9,0,1.1C436.8,243.2,437.3,242.3,437.4,242.1z M438.4,251
	c-1.1,1-2.7,0.2-3.4-0.8c1.3-0.4,2.5-0.4,3.4,0.3C438.3,250.7,438.2,250.9,438.4,251z M442.7,243.9c0.6,0,0.5,0.4,1,0.5
	C443.7,245.2,442.1,244.7,442.7,243.9z M447.8,243.8C449,244.2,448.1,245.4,447.8,243.8L447.8,243.8z M452.9,247.7
	c-0.4-1.1-2.3-2.4-3-1.4c-0.3-0.4-0.8-1.2-0.4-1.7c1.5,0.4,2.7,1,3.8,1.9C453.4,247.3,452.9,247.1,452.9,247.7z M453.3,247.1
	C454,246.2,453.6,248.1,453.3,247.1L453.3,247.1z M454.1,247.4C454.3,247.6,454.1,247.3,454.1,247.4L454.1,247.4z M457.3,252.1
	c-0.4-0.3-1-0.3-0.8-1.4c0.3,0,0.6,0,0.8,0C457.3,251.2,457.3,251.6,457.3,252.1z M461.2,252.4c-0.8,0.2-1.1-0.2-1.5-0.5
	c1.3-2-0.9-2.7-1.7-2.5c0-1.2,0.2-2.4,1.1-2.5c0.1,1.4,1.2,1.6,1.9,2.2C460.5,250.7,461.2,250.7,461.2,252.4z"/>
<path class="st0" d="M528.9,232.5c-2.7-0.8-4.6-1.5-5.9-4.4c0.3-1.1,0.6-1.8-0.2-2.5c0.3-1,0.8-1.5,0.8-2.8c0.8,1,2.5,1.5,3.5,2.5
	c-1.6-6.4-3.3-12.8-4.9-19.2c-2.1,2.4-4.6,4.6-6.7,6.7c0.7,0.8,2.2,0.9,3.2,0.5c-0.8,2.2-1.6,4.5-3.6,5.3c0.1,0.8,0.8,0.9,0.6,1.9
	c-1.1,0-2-0.3-2.8-1.4c-1.8,1.2-1.7,4.8-3.6,5.8c-1.2-3-0.7-6.1,0.4-8.3c-0.4-0.3-1.7,0.3-1.7-1.1c-0.2-1,0.9-0.3,1.1-0.8
	c0-3.6-0.6-8.1,1.5-10.2c0.7,1.2,0.3,3.9,1.5,4.4c0.6,0,0.5-0.8,0.8-1.1c2.3,4.2,7.5,0.4,7.9-3.9c0.3,0,0.5,0,0.8-0.1
	c-0.3-1.3-0.7-2.6-1-4c-4.5-0.3-9.4-0.5-14.5-0.5c-6.2,0-11.9,0.3-17.3,0.7c-1,6.2-1.9,12.7-2.7,19.4c0.5,0.4,1,0.9,0.7,2
	c-0.3,0.2-0.6,0.4-1,0.4c-0.3,2.5-0.5,5.1-0.8,7.7c-0.6,7-1.1,13.7-1.3,20.2c0.8,0.2,1.4,0.6,0.9,2c-0.4-0.2-0.7-0.4-1-0.6
	c-0.1,2-0.1,4-0.2,6c2.8,0.4,5.8,0.8,9.1,1c0.1-0.2,0.2-0.4,0.3-0.6c-0.2,0-0.5,0-0.7-0.2c0.1-0.4,0.4-0.6,0.7-0.7
	c-1.6-2.6,0.5-5.7,1.5-7.7c0.1-0.6-0.6,0.1-0.6,0.3c-0.4-2,2.1-3.7,1.3-5.5c1.3,0.4,1.3-0.7,1.7-1.4c1.3,0.2,1.1,2.4,2.5,2.5
	c0.7,4.1,0.2,5.3-1.3,8.6c-0.3-0.1-0.5-0.4-0.8-0.5c-1,1.5-1.6,3.6-2.4,5.4c3.7,0.3,7.7,0.4,11.8,0.3c0.5-0.1,1-0.2,1.5-0.3
	c-1.3-0.4-1.4-1.8-1.1-3.5c1,0.2,1.8,0.6,2.6,1.1c-0.1,0.8-0.2,1.6-0.4,2.1c1.7-0.5,3.2-1.2,4.5-2.4c0.2-1-0.9-0.4-0.6-1.4
	c2,0.3,5,0.2,6.2,2.2c-2.8,0.2-5.6,1-8.3,2c3.7-0.2,7.2-0.5,10.4-0.9c0,0,0,0,0,0c0,0,0,0,0,0c4.9-0.6,9.4-1.4,13.4-2.3
	C532.8,247.8,530.8,240.2,528.9,232.5z M511.1,200.9c0.2,0,0.4,0.1,0.7,0.1c0,0.2-0.1,0.5-0.1,0.7c-0.2,0-0.4-0.1-0.7-0.1
	C511,201.4,511,201.2,511.1,200.9z M508.1,201.9c0,0.3,0,0.6,0,0.9c0.8-0.6,1.7-1,2.5-1.1c-0.5,3-1.8,4.7-4.2,5
	c-0.1-0.8,0-1.5,0.2-2.1c-0.3,0-0.6-0.1-0.9-0.4C505.4,201.3,507.1,201.9,508.1,201.9z M507.4,200.4c0.3,2-2.2,1.4-2.8,0.7
	C505.2,201.2,506.3,200.7,507.4,200.4z M486.2,233.1c0.1-0.7,0.2-1.5,0.3-2.2c0.9,1.2,2.6,1.7,2.5,3.7
	C487.9,234.3,487.4,233.4,486.2,233.1z M490,235.6c-0.2,0-0.4-0.1-0.7-0.1c0-0.2,0.1-0.5,0.1-0.7c0.2,0,0.4,0.1,0.7,0.1
	C490,235.1,490,235.3,490,235.6z M492.2,233.7c0.4-0.5,0.4,0.2,1.1,0C493.6,235.6,491.9,235.3,492.2,233.7z M496.2,241.7
	c-1-1.9-1.9-2-3.6-3.5c0.2-0.8,1.4,0,2-0.1c-0.2,0.3-0.4,0.5-0.5,1c1.3-0.4,2.7,0.6,2.7,2.3C496.5,241.3,496.3,241.4,496.2,241.7z
	 M497.3,217.1c-1.2-0.1-0.9-2.3-0.2-2.8C497.9,214.8,497.6,216.1,497.3,217.1z M499.8,242c0.5-0.1,0.4,0.4,0.4,0.8
	C500,242.7,499.8,242.5,499.8,242z M497.5,214.2c-0.2-0.5-0.3-1-0.1-1.9c-2.9-0.4-3.4,2.7-7,1.2c1-3.1,4.6-2.4,7.3-3
	c0.5,0.8-0.1,0.5-0.2,1.5c2-1.1,3.6-2.8,5.7-3.6C503.5,211.9,500.3,213.9,497.5,214.2z M503.6,251.1c-0.1,0-0.3,0-0.4,0
	c0-0.2,0-0.4,0-0.5c0.1,0,0.3,0,0.4,0C503.6,250.7,503.6,250.9,503.6,251.1z M503.4,214.6c1.8-2.1,2.9,1.8,4.3,1.1
	c0,0.8,0.5,1.7,0.2,2.8C506.1,218.2,502.7,218.9,503.4,214.6z M506.8,252.8c-0.1-1.1,0.4-1.5,1.3-1.4
	C508.6,252.7,507.6,253.4,506.8,252.8z M516,246.1c-0.6-0.8,0-2.4,0.6-2.5C517.6,244.3,516.7,246.1,516,246.1z M509.8,230.2
	c2.8,0.7,4.9,1.7,8.4,2.2C515.3,232.4,511.3,231.4,509.8,230.2z M518.7,242.5c-0.1-0.5,0.2-0.5,0.2-0.8
	C519.4,241.6,519.2,243,518.7,242.5z"/>
<path class="st0" d="M551.6,261.8c1.3,0.1,2.7,0.2,4.3,0.2c-0.2-0.2-0.4-0.5-0.5-0.8c0.8-0.1,1.6-0.3,2.7,0c0,0.3-0.1,0.6-0.2,0.8
	c3.9-0.1,8.5-0.5,13.5-1.8c5.2-1.3,9.6-3.2,12.9-5c-0.1-0.3-0.1-0.6,0-1c-0.9,0-1.8-0.1-2.3-0.5c1-0.8,2.6,0.4,3.9,0.2
	c-2.1-8-4.6-16.6-7.7-25.5c-1-2.9-2-5.8-3.1-8.6c-0.5,0.4-1.3,0.4-1.9,0.7c0.1,0.3,0.5,0.4,0.5,0.7c-0.6-0.3-0.7-0.6-1.4-0.9
	c0-0.6,1-0.5,0.9-1.2c0.6,0,1.2-0.1,1.6-0.1c-3-8.1-6.2-15.6-9.4-22.5c-3,0.1-6.6,0.5-10.5,1.3c0,0-0.1,0-0.1,0
	c0,0.2-0.2,0.2-0.2,0.3c-0.2,0-0.3-0.1-0.3-0.2c-3.7,0.8-7,1.8-9.7,2.9c-0.8,7.5-0.8,13.6-0.6,17.6c0.5,10.7,2.5,19.8,6.3,37.4
	C550.9,258.4,551.3,260.4,551.6,261.8z M582,240.9c0.7,0,0.2,1.7-0.5,1C581.5,241.3,581.9,241.3,582,240.9z M581.1,253
	c-0.6,0-1.2,0.1-1.5-0.3C579.5,251.2,581.3,251.5,581.1,253z M557.6,248.7c-0.8-0.5,0.1-1.2,0.3-1.7
	C558.8,247.4,557.7,248.2,557.6,248.7z M559,219.3c0.3,0,0.6,0,0.8,0c0.4,1.4-0.9,0.6-0.8,1.7C558.4,220.7,559.1,219.8,559,219.3z
	 M558.3,216.7c-0.9-0.8,0.6-1.2,1.6-0.4C559.7,216.6,559,216.6,558.3,216.7z M561.1,261.1c-0.3,0-0.2-0.5-0.2-0.8
	C561.6,260,561.3,260.8,561.1,261.1z M563.2,258c-0.5,0-0.5-0.7-0.4-1.4c0.2,0,0.4,0,0.6,0C563.6,257.4,563.2,257.4,563.2,258z
	 M559,242.5c1.5-1.2,4.5-1.8,6.2-1.9C563.8,242.6,560.6,244.2,559,242.5z M568.1,246.7c0-0.6,0.5-0.6,1.1-0.5
	C569,246.7,568.6,247.3,568.1,246.7z M574.9,254.4c0.2-0.9,1.4-0.7,1.7-0.1C576.1,254.7,575.2,254.9,574.9,254.4z M577.8,228.2
	c0.3,0.5-0.5,1.1-1.5,1C576.5,228.4,576.4,228,577.8,228.2z M577,232.3c0.2,0.1,0.3,0.2,0.5,0.3c0,0.6-0.7,0.8-1,1.3
	C575.7,233.5,576.1,232.2,577,232.3z M574,218.4c0,0.5-1.5,0.7-2.7,0.6C570.3,217.7,574,217.3,574,218.4z M568.4,231.4
	c0.3-0.2,0.8-0.3,1.4-0.2c0,1-0.3,1.6-1.2,1.3C568.4,232.2,568.3,231.9,568.4,231.4z M568.8,235.1c1-0.4,1.9-0.9,2.3,0.5
	c0.7-0.1,0.8-1,1.4-1.1c0.8-1,2-1.3,3.7-0.9c-0.1,0.7-0.2,1.5-0.3,2.2c-0.4,0.1-0.8,0.2-1.3,0.3c0.1,1.2,0,2.3-0.8,2.8
	c-2.5-2.1-6-0.6-7.7-5.5c0-0.7,0.6-0.7,0.9-1.1c-0.5-0.1-1-0.1-1.5-0.2c0-1.5,1.1-1.3,2.2-1.2c-0.2,0.2-0.3,0.5-0.4,0.9
	C568.2,232.4,568.4,233.8,568.8,235.1z M562.4,230.1c0.3-3.2,4.2-2.1,5.2-0.7C566.5,230.4,563.5,230.6,562.4,230.1z M567.1,224.1
	c0.6,0,0.3,2.1-0.5,1.4C566.5,224.7,566.9,224.6,567.1,224.1z M565.6,198.8c0.1,0.9-0.1,1.3-0.2,1.9
	C564.1,200.7,564.7,198.9,565.6,198.8z M562.2,216.3c0.2,0,0.1,0.1,0.2,0.2c0.4,0.2,1.3,0.3,1,0.7c-0.4,0-0.7,0-1.1,0
	C562,216.8,562.4,216.7,562.2,216.3z M561.7,215.6c0.3,0.1,0.2,0.3,0.3,0.5C561.6,216.1,561.6,215.9,561.7,215.6z M560.4,198.7
	c0.1,0.4-0.8,0-1.1,0C559.3,198.5,559.9,198.6,560.4,198.7z M560.7,200.7c0.3,1.8-1.2,4.4-3,4.4C558.2,202,558.2,200.4,560.7,200.7z
	 M556.4,211.5c0.6,0.4,1.5,0.1,2.2-0.1c-0.1-0.1-0.1-0.1-0.2-0.2c0.6-0.6,0.9-0.3,0.8,0c0.8-0.1,1.3,0,1.5,1.6c0,0-0.1,0.1-0.2,0.1
	c0,0,0,0,0,0c0,0.9,1.4,1.8,1,2.5c-0.1-0.3-0.5-0.9-1-1.3c-0.7,0.4-1.7,0.4-2.6,0.7c-0.6-1,1.6-0.9,2-1.6
	C558.4,214.2,556.1,214.4,556.4,211.5z M558,216.8c0.4,0.2,0.4,0.7,0.9,0.9c-0.3,2.5-1.5,3.4-2.2,5.3
	C555.1,222,556.3,216.9,558,216.8z M553.2,241.1c-1.2-0.1-1.3-0.5-1.2-1c0.6,0.1,1,0.3,1.5,0.4C553.4,240.7,553.5,241,553.2,241.1z
	 M545,209.4c1.4-0.9,5.7-1.4,7.8,0C550.9,209.8,547.4,210,545,209.4z"/>
<path class="st0" d="M625,243.4c-1.2-0.2-2.3-0.8-2.4-1.6c-0.5-3,2.5-1.6,3.4,0.6c0.7-0.6,1.5-1.1,2.5-1.4c0.1,0,0.2-0.1,0.3-0.1
	c0.8-0.6,1.5-1.3,2.1-1.8c-1.1-3.8-2.3-7.3-3.5-10.4c-0.2-0.1-0.2-0.2-0.1-0.3c-0.4-1.1-0.8-2.1-1.2-3.1c-1.8-0.1-3.6-0.2-5.2-0.3
	c0.4,0.5,0.6,1.1,0.6,2c-1.4,1.1-4-1-4-3.2c1.3,0.1,2.3,0.4,3,0.9c0.7-0.3,2.2,0.1,3.1,0.1c0.7,0,1.4,0,2.2,0
	c-0.8-2-1.6-3.8-2.3-5.4c-1.5-3.4-3-6.5-4.6-9.4c-0.7-0.1-1.3-0.4-1-0.7c0.2,0,0.4,0,0.6,0c-0.4-0.8-0.9-1.6-1.3-2.5
	c-1.5,0.9-3.2,1.4-5.4-0.5c-0.2-2.9,1.3-4.1,2.9-3.9c-2-3.3-3.8-6.3-5.5-8.9c-1.2-2-2.4-3.7-3.4-5.2c-0.3,0.3-0.7,0.3-1.1,0v-1.1
	c0.1-0.1,0.2-0.1,0.3-0.2c-0.4-0.5-0.7-1-1-1.5c-2.3,0.4-4.8,1-7.5,1.7c-1.4,0.4-2.8,0.8-4,1.3c-0.9,0.3-1.8,0.7-2.7,1
	c0.1,2.2,0.2,4.3,0.3,6.3c0.2,0,0.4,0.1,0.6,0.1c0,0.1,0,0.3-0.1,0.5c-0.2,0-0.4-0.1-0.5-0.2c0.3,3.8,0.6,7.1,1,9.8
	c2,15.8,5.8,27.7,7.8,33.3c1.4,4.1,2.8,7.4,3.7,9.6c0.7,0.1,1.6,0.1,2.5,0.1c0.1,0,0.3,0,0.4,0c3.2,0,7.5-0.4,12.2-2
	c0.1-0.3,0.2-0.6,0.5-0.8c0.4,0,0.8,0.1,1,0.2c0.4-0.2,0.8-0.3,1.2-0.5c1.6-0.7,3-1.5,4.2-2.3C624.9,243.5,624.9,243.5,625,243.4z
	 M611.2,220.7c0.3,0,0.3,0.1,0.5,0.2c-0.1,0.3,0.1,0.9-0.7,0.8C611,221.4,610.8,220.8,611.2,220.7z M611.1,203.5
	c0.6,0.1,0.2,0.3,0.1,0.5C610.8,203.9,610.9,203.6,611.1,203.5z M611.7,219c-0.3-0.1-0.4-0.2-0.3-0.4c0.2,0,0.4,0,0.6,0.1
	C612,218.9,611.7,218.9,611.7,219z M611.7,198.3c-0.2,0-0.5,0-0.9,0C610.7,197.7,611.9,197.8,611.7,198.3z M611.5,200
	c0,0.2,0,0.5-0.3,0.5c-0.9-0.1-1.3-0.5-1.4-0.9C610.5,199.4,610.6,199.9,611.5,200z M610.8,223.6c0,0.2-0.3,0.2-0.2,0.3
	c-0.4-0.1-0.4-0.3-0.3-0.5C610.6,223.5,610.6,223.6,610.8,223.6z M606.9,192.7c0.5,0,0.8,0.1,0.7,0.4
	C607.2,193.2,606.7,193,606.9,192.7z M604.9,188.2c-0.1,0.3-0.5,0.3-1.2,0.2C603.6,187.9,604.3,188,604.9,188.2z M601.4,187.4
	c0.6,0,0.3,0.3,0.3,0.5c-0.3,0-0.5-0.1-0.7-0.1C600.9,187.5,601.5,187.7,601.4,187.4z M597.1,192c0.5,0.2,1.1,0.4,0.7,0.7
	C597,192.6,596.7,192.2,597.1,192z M599.9,196.2c-0.4,0.7-2.4-0.3-3.5-0.4C596.7,195.1,598.8,196,599.9,196.2z M592.5,188.9
	c0.3,0,0.3,0.6-0.2,0.3C592.2,189,592.4,189,592.5,188.9z M590.5,197c0.2-0.6,0.6-0.5,1.6-0.4C591.6,196.7,591.2,196.9,590.5,197z
	 M591.9,207.8c-0.5-0.8,0.1-0.5,0.2-1.5c0.3,0,0.7,0.1,1,0.1C593,207.5,592.7,208.1,591.9,207.8z M598.6,225.4
	c-0.4-1.3-0.3-4.2,1.3-3.9C599.6,223.4,599.7,224.4,598.6,225.4z M600.1,213.9c-2.4-0.2-3.6,0.6-5.5-0.8c0-0.1,0-0.3,0.1-0.5
	c0.3-0.1,0.8-0.1,1.5,0c0-0.3-0.5-0.4-0.3-0.8c0.9-0.4,2.9,0.3,2.7,1.1C600,212.7,601.6,213.6,600.1,213.9z M601.7,220.7
	c-0.5,0.1-0.8,0-1.1-0.3c0.5-0.3,0.6-1,1.3-1.1C602.1,220.1,601.7,220.1,601.7,220.7z M602.2,205.4c-0.6-0.3-1.7-0.4-2-0.9
	c0.8,0.2,1.7-0.3,2.4,0.2C602.7,205.1,602.5,205.3,602.2,205.4z M600.5,197.7c-0.4-0.1-0.8,0.5-0.1,0.5c-0.1,0.2-0.5,0.1-1,0
	c0-0.1,0-0.3,0-0.4c-1.6-0.3-3.6-0.3-4-1.2c2-0.1,5.8-0.1,7.4,0.9C602.6,197.9,601.3,198,600.5,197.7z M603.6,219.7
	c-1.3-0.2-0.5-0.8,0.1-0.8C604.4,219.1,604,219.7,603.6,219.7z M604.2,215.8c0.2-0.1,0.4-0.3,1-0.1
	C604.9,215.8,604.6,216,604.2,215.8z M605.2,197.7c-0.2,0-0.3,0-0.6,0c-0.1,0.2,0.3,0.3,0.1,0.5c-0.3,0-0.5-0.1-0.6,0
	c0-0.2-0.3-0.8-1.2-1c1.5,0,6.9-0.2,6.9,0.8c0,1.2-3.3-1-3.3,0.3C605.7,198.2,605.6,197.9,605.2,197.7z M609.6,203.9
	c-0.6-0.2-0.6-0.5-0.3-0.7C609.9,203.3,609.9,203.8,609.6,203.9z M608.4,200.2c-0.7-0.1-0.7,0-1.3-0.2c0.2-0.3,0.5-0.4,0.8-0.5
	c-0.1-0.1-0.4-0.2-0.7-0.3c0-0.1,0-0.3,0.1-0.5c0.8,0.1,1,0.1,1.7,0.3C608.3,199.3,608,199.5,608.4,200.2z M608.2,215.9
	c-0.2,0.4-0.9,0.4-1.5,0.1C606.5,215.5,607.6,215.7,608.2,215.9z M605.7,199.6c-0.1-0.4,0.5-0.4,0.8-0.2
	C606.3,199.5,606.2,199.7,605.7,199.6z M607.7,239c-0.4,0.3-0.3,1.3-1.2,1C606.6,239.1,607,238.8,607.7,239z M607.1,245.6
	c-1-0.6,0.3-3.6,1.3-2.5C608.1,244.3,607.4,244.7,607.1,245.6z M608.3,229.1c-0.3-1,1.3-1.1,2.4-0.6c0.7,0.1,0.2-0.7,0.7-0.8
	c0.1,0,0.2,0,0.4,0c0.4,0.4,1,0.7,1.8,0.7c0,0.2-0.1,0.4-0.1,0.6C611.6,229.1,610.7,230.2,608.3,229.1z M614.4,234.8
	c-0.7,0.2-2.3-0.5-2.3-1C613.5,234,614.4,234.3,614.4,234.8z M613.4,243.4c-0.7,0.4-1,0.1-1.5-0.3
	C612,242.3,613.7,242.3,613.4,243.4z M614.2,240.5c-0.9,0-1.1-0.5-0.6-0.8c0.4,0,0.7,0.1,0.9,0.2
	C614.5,240.2,614.2,240.2,614.2,240.5z M613.4,208.8c0.1-0.3,1,0,1.5,0c0.2,0.4,0.9,0.7,1,1.2C614.3,209.9,614.6,209.1,613.4,208.8z
	 M616.7,239.9c-0.8-0.3,0.2-0.5,0.5-0.6C617.7,239.6,616.8,239.7,616.7,239.9z M617.3,215.2c0.5,0,0.5,0.2,0.9,0.2
	c0.1,0.3-0.6,0-0.6,0.3C617.2,215.6,617.3,215.4,617.3,215.2z M617.9,237.3c-0.4-0.1-0.4-0.3-0.1-0.4
	C618,237,617.8,237.2,617.9,237.3z M626.9,234c0.4,0.2,0.1,1,0.1,1.5C626.3,235.3,626.4,234.4,626.9,234z M625,228.5
	c0.2,0,0.4,0,0.6,0.1c0,0.1,0,0.3-0.1,0.5C624.9,229,625,228.7,625,228.5z M624.9,231.2c-0.7,0.5-1.5,1.1-2.1,0.3
	c-0.1-1.1,0.3-1.5,0.6-1.9C624,230,624.7,230.3,624.9,231.2z M621.7,228.3c1,0.1,1.2,0.4,1.2,0.8c-0.2,0-0.3,0-0.4,0.1
	C621.5,229,621.2,228.6,621.7,228.3z M623.1,236.3c-0.4-0.5-0.7-1.1-0.7-1.5c1.9-0.1,5.5,1.3,4.9,3.6c-0.4,1.4-2.2,0.2-3.5-1.3
	c-0.6,0.1-1.2,0.2-1.7,0.4C621.7,236.9,622.5,236.7,623.1,236.3z"/>
<g>
	<path class="st1" d="M671,190.6c-0.4-0.4,0.5-0.7,0.5-1.1c1.6,0.9,4,0.4,5.7,1.3c0.2-0.2,0.7-0.2,1.1-0.2c1.6-3.6,3.2-7.5,4.5-11.6
		c-0.5-0.1-0.8-0.2-1-0.3c0-0.2,0.1-0.5,0.1-0.7c0.3-0.4,0.8-0.6,1.4-0.8c0.8-2.5,1.4-5,2-7.6c-0.3,0.6-0.7,0.9-1.3,0.8
		c-0.5-1.5,0.4-2,0.8-3.3c0.3,0,0.7,0.1,1,0.1v0c1-4.6,1.6-9.4,2-14.5c-0.3,0.3-0.7,0.6-1,0.6c-2.3-0.9-0.5-1.1,0.8-1.7
		c0.1,0,0.2,0.1,0.2,0.2c0.3-4.5,0.2-9.2-0.1-14.1c0,0-0.1,0.1-0.2,0.1c-1-0.2,0.2-0.8-0.8-0.9c0.2-0.1,0.6-0.1,0.9,0
		c0-0.3,0-0.6-0.1-1c-0.1-1.5-0.3-3-0.5-4.5c0,0-0.1,0-0.1,0c-0.2-0.1,0-0.1,0.1-0.1c-0.8-6.4-2.2-12.3-4-17.9
		c-0.2-0.1-0.2-0.2-0.2-0.4c0,0,0,0,0,0c-4.2-12.9-10.4-23.7-16.9-32.4c-2.6,0.6-5.1,0.6-7.1-1.7c0.5-1.3,2.1-1,3-1.8
		c1.1-0.2,0.5,1.1,1.2,1.3c0.4,0,0.5-0.5,0.7-0.8c-6.9-8.6-13.8-14.9-18.7-18.8c-0.1,0-0.1,0-0.2,0c0-0.1-0.1-0.1-0.1-0.2
		c-2.8-2.2-4.9-3.6-5.8-4.3c-4.5,5.2-9.5,12-14.3,20.4c-0.4,0.8-0.8,1.5-1.3,2.3c3-0.2,5.7,0.1,5.5,2.2c-0.3,4.6-5.7-3.1-6.1,2.1
		c-0.7,0-1.1-0.2-1.4-0.5c-1.7,3.4-3.1,6.6-4.3,9.6c0.3,0,0.6,0.1,0.9,0.1c0.5,0.4,0.3,1.3-0.6,1.2c-0.9-0.3-0.5-0.7-0.4-1.2
		c-1,2.5-1.8,4.9-2.6,7.1c0,0,0,0,0,0c0.8-0.6,2.5-0.9,3.9-1.2c-0.1,0.8-1.4,1.8-3.2,1.8c3.5,3.1,14.3,13.8,17.8,30.5
		c0.6,0.5,0.8,1.5,0.4,2c0.5,3,0.8,6.2,0.7,9.6c-0.2,9.9-3.1,18-6.2,24.1c-0.3,1.3-0.7,2.4-1.3,3.4c1.3,0.1,2.5,0.6,2.2,1.2
		c-0.9,0-1.8-0.2-2.7-0.5c-0.4,0.6-0.9,1.2-1.4,1.7c-0.1,0.3-0.3,0.6-0.6,0.6c-0.2,0.2-0.5,0.4-0.7,0.6c-0.6,0.9-1.3,1.7-1.8,2.3
		c1.6,1.1,3.3,2.2,5.7,2.8c-0.1,0.5-1.3,0.3-2.1,0.4c0-1-2-1.8-4-2.6c-0.4,0.5-0.8,0.9-1,1.2c3.9,5.5,8.3,11.3,13.1,17.2
		c0.1,0,0.1-0.1,0.2-0.1c0.2,0,0.3,0.1,0.4,0.1c2.2-1.6,5.7,0.2,8.7-1.6c-0.8,1.5-2.3,2.4-4,3c0.2,0,0.4,0.1,0.7,0.1
		c-0.1,0.3,0.5,0.3,0.3,0.6c-1.3-0.3-2.6-0.2-3.9-0.1c-0.1,0-0.3,0-0.4,0c-0.1,0-0.2,0-0.3,0c0.6,0.8,1.3,1.5,1.9,2.3
		c4.3,5.1,8.7,9.9,12.9,14.4c0,0,0.1-0.1,0.1-0.1c0.7,0,0.5,0.4,0.5,0.6c0,0-0.1,0-0.1,0c2.7,2.9,5.4,5.6,8.1,8.2
		c0.9-1,2.9-3.1,5.3-6.3c-1,0.1-3-0.1-3.5-0.5c1-0.8,2.3,0.2,3.7,0.2c0.8-1.1,1.8-2.3,2.7-3.6c-0.3,0-0.6-0.1-0.8-0.2
		c0.1-0.3,0.3-0.4,1-0.2c0,0.1,0,0.1,0,0.2c3.5-4.9,7.4-11.3,11-19C676.1,191.7,672.8,190.5,671,190.6z M620.1,103.3
		c-0.4-0.2-0.6-0.6-0.5-1.2C620.4,102.1,620.2,102.7,620.1,103.3z M620.9,87c-0.1-1.4,1-1.7,1.5-0.9C622,86.6,621.9,87.5,620.9,87z
		 M624.5,96.1c-0.8-0.5,0.4-1.5,1.2-0.9C625.5,95.8,624.5,95.2,624.5,96.1z M623.4,88.1c0.4-1,1.1-1.7,1.7-2.4
		c-0.2-0.5-0.6-0.8-1.2-0.9c0.1-0.6,0.2-1.2,0.3-1.8c1.5,0.1,1.9-0.1,2.9,0.8c-1.4,1.2-2,2.3-1.4,4.7
		C624.5,88.3,624.4,88.8,623.4,88.1z M626.7,102.8c-1-0.5-0.9-1.6-0.3-2.7C627.6,100.2,627.3,102.2,626.7,102.8z M623.6,178.3
		c-0.6,0-1,0.1-1.1-0.4C622.9,177.9,623.9,178,623.6,178.3z M624.2,181.1c0.4-0.8,2.3-0.3,3.2-0.1
		C627.1,181.6,625.4,181.6,624.2,181.1z M628,173.4c-0.5,0-0.7-0.1-0.5-0.4c0.2,0,0.4,0,0.5,0.1C628,173.2,628,173.3,628,173.4z
		 M628.1,166.5c0-0.8,0.5-1,1-0.9c-0.2-0.1-0.3-0.1-0.5-0.2c0-0.2,0-0.5,0.3-0.5c1,0.4,1.1,0,2.1,0.1c-0.2,0.5-0.2,0.6,0,1.1
		c-0.6,0.1-0.9-0.1-1.3-0.3c0.2,0.2,0.3,0.4,0.4,0.6c0.2,0,0.4,0.1,0.6,0.1c0,0.2-0.1,0.4-0.1,0.6c-0.3,0-0.6-0.1-0.9-0.1
		c0-0.2,0-0.3,0.1-0.4C628.9,166.6,629.1,166.3,628.1,166.5z M629.5,177.1c0-0.5,1.1-0.6,1.8-0.3
		C631.4,177.4,630.2,177.4,629.5,177.1z M671.8,185.3c-0.6,0-0.8-0.2-0.7-0.5c0.4,0.1,0.4-0.1,0.9,0
		C672.1,185.1,671.9,185.3,671.8,185.3z M672.9,185.3c-0.1-0.4,0.4-0.4,0.7-0.6c0.2,0.1,0.3,0.2,0.5,0.3
		C674,185.3,673.7,185.5,672.9,185.3z M676.8,185.8c-0.6-0.3,0.1-1.1,0.6-0.8C677.4,185.5,676.8,185.2,676.8,185.8z M680.8,176.9
		c0.5-1,1.6-1.5,1.9-2.4C683.3,175.1,682.2,176.5,680.8,176.9z M678.4,130.1c0.2,0.2,0.5,0.7-0.3,0.5
		C678.6,130.5,678.1,130.2,678.4,130.1z M679.2,131.2c-0.2,0-0.4,0-0.6-0.1c-0.1-0.3,0.2-0.3,0.3-0.5
		C679.5,130.8,678.9,130.9,679.2,131.2z M679.7,132.7c0.1,0.2,0.3,0.4,0.3,0.6c-0.2,0-0.4,0-0.5-0.1c0.5-0.2-0.3-0.5-0.7-0.4
		C678.5,132.6,679.3,132.7,679.7,132.7z M678.3,132c-0.2-0.2,0-0.5,0.1-0.6c0.1,0.1,0.3,0.1,0.5,0.2
		C678.8,131.7,678.4,131.7,678.3,132z M679.3,175.5c-0.3,0.1-1.1,0.1-1.1-0.3C678.8,175.2,678.8,175.3,679.3,175.5z M678.7,165.7
		c0.8-0.1,1.5,0.4,1.4,0.9C679.1,166.4,678.7,166.1,678.7,165.7z M679.9,132.9c0-0.1,0-0.2-0.2-0.2c0-0.2,0.6,0.2,1.1,0.2
		C681,133.1,680.3,132.9,679.9,132.9z M682.4,119.8c-0.1,0.1-0.6,0-0.4,0.3c-0.7-0.2-0.6-0.1-0.9-0.4
		C681.4,119.8,681.7,119.9,682.4,119.8z M680.7,129.8c-0.2-0.1-0.3-0.3-0.3-0.4C680.7,129.5,681.1,129.7,680.7,129.8z M682.9,173.8
		c-0.4-0.1,0-0.5-0.1-0.8C683.4,173.1,683.2,173.7,682.9,173.8z M683,172.2c-0.4-0.1,0-0.5-0.1-0.8
		C683.3,171.6,683.3,172.1,683,172.2z M683.5,167.6c-0.4-0.1-0.4-0.3-0.1-0.4C683.6,167.3,683.5,167.5,683.5,167.6z M683.2,149
		c0.7,0,0.2,0.5,0.3,0.7C682.7,149.7,682.9,149.1,683.2,149z M685.4,152.3c0,0.2-0.1,0.4-0.1,0.6C681.8,153,682.8,150.8,685.4,152.3
		z M686.4,154.1c0.3,0.3-0.3,0.7,0,1.1c-0.7,0-0.8,0.4-1.7,0.1C684.5,154.5,685,154,686.4,154.1z M686.6,148.8
		c0.1-0.3,0.3-0.6,0.6-0.5C687.3,148.8,686.9,148.7,686.6,148.8z M687.1,138.6c0.8,1.8-0.2,4.4-1.5,6.2c1,0.3,1.5,1,1,1.5
		c-1.1-0.1-1.4-0.4-1.5-0.9c-0.5,0.6-1,1-1.6,1.2C683.4,143.9,686.4,141.8,687.1,138.6z M684.7,136.3c0.3,0.1,0.4,0.2,0.7,0.3
		c0,0.3-0.1,0.7-0.2,1c-0.6,0-0.7-0.2-1.1-0.3C684.5,136.6,683.7,136.7,684.7,136.3z M683.8,118.1c-0.1,0.2-1-0.1-1.1-0.2
		C682.9,117.7,683.3,118.1,683.8,118.1z M682.3,113.1c0.6,0.1,0,0.3,0.3,0.3C682.3,113.7,682.1,113.3,682.3,113.1z M682.1,118.2
		c0.5,0.2,0,0.3,0.5,0.6c-0.7-0.2-0.4,0.2-1,0C682.4,118.5,681.3,118.6,682.1,118.2z M680.7,120.1c-0.2-0.1-0.3-0.3-0.7-0.4
		C680.2,119.5,680.9,119.9,680.7,120.1z M679.6,118.3c0.5,0.1,0.8,0.3,0,0.3C679.6,118.5,679.6,118.4,679.6,118.3z M679.9,119.1
		c0.3,0.1,0,0.2-0.2,0.2c0,0.1,0,0.2,0.2,0.2c-0.3,0.2-0.6-0.2-0.5-0.4C679.6,119.1,679.8,119.2,679.9,119.1z M679,118.8
		c-0.4-0.1-0.5-0.3-0.5-0.5C679.1,118.3,679,118.5,679,118.8z M678.2,116c0.2,0,0.4,0.1,0.6,0.1c0.1,0.2-0.4,0.1-0.4,0.2
		C678.2,116.3,678.3,116.1,678.2,116z M678.3,116.8c0.1,0.1,0.3,0.1,0.5,0.2c-0.2,0.1-0.2,0.2-0.2,0.3
		C678.2,117.1,678.1,117,678.3,116.8z M678.4,129.3c0.4,0.1,0,0.5,0.1,0.7c-0.8-0.3-1.6,0.1-1.4-0.7
		C677.5,129.3,678.1,129.4,678.4,129.3z M677.6,119.2c-0.7,0.1-1-0.5-1.2-0.7c0.6,0,0.4,0,1.1,0.2
		C677.1,118.9,677.6,118.9,677.6,119.2z M676,130c0.4,0,0.6,0.6-0.1,0.5C676.3,130.3,676,130.2,676,130z M676.1,112
		c1.2-0.1,0.4,1.3,0.1,1.5C675.7,113.3,676,112.5,676.1,112z M675.7,131.7c0.3,0,0.4-0.1,0.4-0.3c0.3,0.1,0.1,0.3,0.1,0.4
		c-0.3-0.1-0.4,0.1-0.8,0c0-0.1,0-0.2-0.2-0.2C675.5,131.4,675.7,131.6,675.7,131.7z M674.9,116.7c0.5,0.9,0,2.3-1.1,1.9
		C674.2,117.9,674,116.6,674.9,116.7z M674.5,123.3c0-0.2,0-0.4,0-0.5c0.1,0,0.3,0,0.4,0c0,0.2,0,0.4,0,0.5
		C674.8,123.3,674.6,123.3,674.5,123.3z M671.9,171.5c-0.6-0.2-0.9-0.5-0.5-0.7C672.4,170.8,672.3,171.4,671.9,171.5z M671.2,162.6
		c0.5,0.1,0.7,0.2,0.7,0.5C671.3,163,671,162.9,671.2,162.6z M672.9,172.8c1.4,0.1,0,2.6,0.1,3.8c1.2,1,2.7,1,4.3,0.9
		c0.4-0.1,0.8-0.1,1.3-0.1c0.4,0,0.8-0.1,1.2-0.1c0,0.1-0.1,0.1-0.1,0.1c0.4,0,0.9,0.1,1.3,0.2c-0.5,0.3-1,0.4-1.7,0.4
		c-1.6,1.8-4.8,2.1-7.9,2c0.1,0.1,0.1,0.3-0.1,0.6c-1.4-0.2-1.5-0.5-1.1-0.7c-2.5-0.2-4.8-0.6-6.3-0.9c1.2-1.3,3.3-1.1,5.4-1.1
		c0-0.7,1.1-0.4,1.3,0c0.2,0,0.4,0,0.6,0C671.3,175.5,672.2,174.4,672.9,172.8z M660.7,175.5c-1.3,0.2-0.2,1.2-1.9,1.1
		c0.1-0.5,0.6-0.9,1.1-1.2c0.1-0.2-0.7-0.1-0.9-0.2c0-0.4-0.4-0.5-0.1-0.8c2.1,0.7,4,0.4,6.5,0.9
		C665.2,176.7,661.9,175.3,660.7,175.5z M662.2,181.2c-0.2,0.1-0.4,0.3-1,0.1c0.3-0.1,0.3-0.4,0.8-0.3
		C662,181.1,662.1,181.2,662.2,181.2z M660.3,180c-0.7,0-0.7-0.5,0-0.4C660.6,179.8,660.3,179.7,660.3,180z M658.5,173.9
		c-0.8-0.2-0.1-1.1,0-1.4C659,172.9,659.1,173.8,658.5,173.9z M655.9,172.7c0.6,0,0.7,0.6,0.3,0.6
		C655.5,173.3,656,172.9,655.9,172.7z M656.2,170.5c0-0.1-0.2-0.1-0.4-0.1c0-0.2,0.1-0.4,0.3-0.4c0.5,0,0.5,0.2,0.9,0.2
		C656.9,170.3,656.8,170.6,656.2,170.5z M655.4,157c0.1-0.2-0.3-0.3-0.1-0.5c0.9,0.5,3.4,0.4,3,1.2
		C657.2,157.4,656.7,157.1,655.4,157z M650.8,174.9c1-0.5,2.8-0.5,4.8-0.2C654.7,174.9,652.6,175.3,650.8,174.9z M653.9,178.5
		c-0.5-0.1-1-0.3-0.9-0.6C653.8,178,654.1,178.2,653.9,178.5z M647.2,175.2c2.4-0.9,0-3-0.1-4.5c1,0.1,1.2,0.4,1.6,0.7
		c1.2-0.1,2.1,0.5,3.1,0.7c0.1,1-1.7,0.5-2.9,0.4C649.4,173.6,649.9,175.5,647.2,175.2z M644.9,155c0.2-0.4,1.8-0.3,1.7,0.3
		C645.7,155.1,645.4,155.2,644.9,155z M645.7,171.2c0,0.3-0.3,0.3-0.5,0.5c-0.4-0.1-0.5-0.3-0.5-0.5
		C645.3,171.3,645.2,171.1,645.7,171.2z M646.7,174.8c0,0.1,0,0.2,0.2,0.2c-0.3,0.1-0.5,0.3-1.2,0.1
		C645.6,174.8,646.1,174.8,646.7,174.8z M644.8,141.3c-0.1-0.6,1.3-0.3,2.3-0.1C647.1,141.7,645.6,141.6,644.8,141.3z M644.8,88.3
		c0-0.7,0.5-0.7,0.5-1.4c0.2,0.2,0.5,0.5,0.9,0.5C646.3,88.4,645.5,88.2,644.8,88.3z M653.8,156.3c-0.7,0.2-3-0.1-3.1-0.7
		C651.9,155.7,652.9,155.9,653.8,156.3z M652.6,150.3c0.4,0.1,0.7,0.5,0.3,0.6C652,150.8,652.4,150.5,652.6,150.3z M652.7,168.6
		c0.3,0,0-0.3,0.3-0.4c0.2,0.1,0.4,0.2,0.7,0.2c-0.2,0.2-0.3,0.4-0.6,0.5c-0.1,0.3,0.9,0.2,0.7,0.5c-1.3,0.2-2.1-1-4-1.2
		c-0.5-0.1-0.3,0.4-0.6,0.5C646.8,167,651.6,167.7,652.7,168.6z M652.3,172.4c-0.5-0.1-0.4-0.4-0.1-0.5
		C652.7,172,652.6,172.3,652.3,172.4z M649.6,157.3c0-0.2,0-0.5,0.3-0.5C650.7,156.9,650.4,157.4,649.6,157.3z M650.1,139
		c-0.9-0.4-1-1.5-0.3-1.9C650.9,137.4,650.4,138.6,650.1,139z M648.9,127.4c0.2-1.1,2-0.6,2.4,0C651.4,129,648.9,128.4,648.9,127.4z
		 M650,154.8c0,1-0.9,1.4-2.6,1.2C647.5,155.3,648.1,154.6,650,154.8z M646.7,103.1c0.3-0.7,0.9-1.4,1.4-0.5
		C648,103.2,647.5,103.4,646.7,103.1z M654.2,171.1c-0.1-0.5-0.5-0.9-1.6-1c0.2-0.3-0.3-0.3-0.1-0.6c1.4,0.4,3,0.8,3.2,1.6
		C654.9,170.9,655,171.3,654.2,171.1z M664.9,133.4c-0.3-0.1-0.4-0.3-0.1-0.4C665,133.2,665.5,133.3,664.9,133.4z M666.5,132.9
		c0.4,0.2-0.2,0.2,0.1,0.5c0,0,0,0,0,0c-0.1-0.1-0.3-0.3-0.6-0.3C666.2,133,666.4,133,666.5,132.9z M665.7,159.9
		c-0.4-0.1-0.9-0.2-0.7-0.5C665.4,159.5,665.9,159.6,665.7,159.9z M665.8,165.4c-0.8,2.2-1.8,4.1-3.6,5
		C661.7,167.6,664.1,165.3,665.8,165.4z M665.1,170.2c-0.1,0.5-0.1,1-0.2,1.5c-0.4-0.1-0.9-0.1-1.3-0.2
		C663.5,170.3,664.1,169.9,665.1,170.2z M667.5,163.7c-0.7-0.3,0.5-0.5,0.4-0.8C668.7,163.3,667.4,163.3,667.5,163.7z M667.3,131.5
		c0.1,0.2,0.7,0.3,0.7,0.6C667.2,132,667.1,131.8,667.3,131.5z M667.9,177c0.1,0.3-0.3,0.2-0.3,0.4c-0.7,0-0.5-0.4-0.5-0.6
		C667.6,176.8,667.7,177,667.9,177z M669.8,131.8c0.5-0.4,0.7,0.7,0.9,0.1c0.5,0.2-0.2,0.3-0.1,0.5c-0.3,0-0.5-0.6-0.9-0.3
		C669,131.9,670.5,132,669.8,131.8z M670,170.7c0.1,0.3,0.5,0.6,0.4,1C669.2,171.7,669.9,171,670,170.7z M670.1,168.9
		c0.6-0.2,1.2,0.2,0.9,0.6C670.6,169.3,669.8,169.2,670.1,168.9z M670.8,130.7c-0.3-0.1-0.1-0.3-0.1-0.4c-0.2,0-0.3,0-0.6,0
		C670.2,129.8,671.2,130.4,670.8,130.7z M670.1,128.8c-0.1,0.1-0.3,0.2,0,0.3c-0.2,0.2-0.4-0.3-0.5-0.4c-0.2,0-0.3,0-0.6,0
		C669.2,128.4,669.5,128.7,670.1,128.8z M669,131.3c0.6-0.2,0.1-0.8,1.1-0.9c0.2,0.5-0.6,0.3-0.5,0.7c0.3,0,0.4,0.2,0.9,0.4
		c-0.5,0.2-1.5-0.2-2-0.3C668.5,131,669,131.1,669,131.3z M668.7,130.5C668.9,130.6,668.8,130.7,668.7,130.5c-0.1,0.2,0,0.2,0.2,0.2
		c-0.1,0.1-0.5,0-0.8,0C668.1,130.5,668.7,130.7,668.7,130.5z M665.8,104.8c-0.2,3.1-0.9,3.3,0.2,5.8c0.6,0.2,0.5-0.4,1.1-0.3
		c-1.2,1.7-1.9,4.9,0.2,6.1c-0.6,0.6-1.7,0.4-1.7,1.7c0.2,0.8,1.5,0.2,1.7,1.1c-0.6,1.5-2.5,0.3-3.8,0.3
		C662.7,113.6,663.2,107.2,665.8,104.8z M667,112.8c-0.3-0.1-0.4,0-0.4,0.1C666.3,112.8,667.4,112,667,112.8z M663.6,142.1
		c0,0.1,0,0.3-0.1,0.5c-0.5-0.1-0.9-0.3-0.7-0.6C663.1,142.1,663.4,142.1,663.6,142.1z M662,105.3c0.7,1.6,1.3,3.3,0.6,5.3
		C661.9,109.4,661.3,106.7,662,105.3z M660.7,122.7c-0.8-3.8-2-10.6,0-13.6C662.2,112,664.5,121.1,660.7,122.7z M661.6,158.3
		c-0.6,0-0.8-0.2-1.3-0.3c0-0.2,0.3-0.2,0.2-0.3C661.2,158,661.4,157.9,661.6,158.3z M659.6,105.6c0.3-0.1,0.4,0.3,0.6,0.3
		c0.2,0.9-0.3,0.9-0.4,1.4C659.2,107.2,659.3,105.9,659.6,105.6z M658.9,133.7c1.3-0.9,1.3,1.3,2.1,1.8c-0.2,0.5-1,0-1.1,0.6
		c0.4,0.9,0.9,1,1.2,1.3c0.3,0.9-1.1,2.3-2.4,2.3C659.1,136.9,660,135.5,658.9,133.7z M659.9,157.9c-0.2-0.1-0.5-0.2-0.9-0.2
		c0-0.3,0.4-0.2,1-0.1C659.7,157.7,660,157.7,659.9,157.9z M658.5,171.7c2,0.2,3.2,0.8,3.3,1.8c-0.8-0.4-2.7-0.9-3.6-1.5
		C658.2,171.8,658.5,171.9,658.5,171.7z M657.9,105.2c-0.5-0.1-0.9-0.1-1.1-0.3c0-0.6,0.9-0.5,1.5-0.1
		C658.3,105,658,105,657.9,105.2z M656.5,76.2c1,0.2,1.5,0.7,1.1,2c-0.8,0-0.6-0.8-1.6-0.6C655.9,76.8,656.3,76.6,656.5,76.2z
		 M656.5,126.7c0.3,1.5,1.2,4.1-0.7,4.8c-0.7,0.1-0.6-0.6-0.5-1.2c-0.5,0.4-1.2,0.7-1.8,0.8c0.1,0,0.1,0,0.2,0.1c0,1-2,0.6-2.6,1.1
		c-2.1-0.7-0.3-1.5,1.5-1.4c-0.3-0.1-0.5-0.4-0.7-0.7c0.2-0.3,0.4-0.5,0.5-1c1.1,0.5,1.4-0.4,2.4,0c0-1.4-0.2-1.8,0.7-2.5
		C655.9,126.6,656.2,126.6,656.5,126.7z M652.9,84.6c-1-0.1-1.1-1.6-0.3-2.3c0.5,0,0.5,0.4,0.9,0.5
		C653.5,83.7,652.7,83.5,652.9,84.6z M644.8,72.6c-0.5,0.7-1.3,1.1-2.2,1.2C642.8,72.6,643.6,72.2,644.8,72.6z M649.9,76.7
		c-1,0.9-0.2,2,0.7,2.3c1.5,0.2,1.6-1.7,3-1.8c0.5,1.4,2.3,1.7,1.8,4c-4.2,0.9-13.7,1.5-14.8-5.6C642.6,77.8,646.7,76.5,649.9,76.7z
		 M636.5,169.6c1.7,0.3,2,0.9,3.6,1.2C639.5,171.6,635.4,170.9,636.5,169.6z M636.1,146.6c0.8,0.2,1.2,0.1,1.9,0.2
		c0.1,0.4-0.3,0.4-0.5,0.6C636.5,147.2,636,147,636.1,146.6z M642.2,177.3c0.3,1.9-0.8,2.1-2.1,1.9
		C640.1,177.7,640.9,177.2,642.2,177.3z M641.4,168.1c0.2-0.1,0.4-0.3,1-0.1C642.5,168.4,641.7,168.3,641.4,168.1z M639.2,154.7
		c0.6-0.7,2.3,0.2,3.2,0C642,155.1,640.1,154.9,639.2,154.7z M640.7,120.9c1.3-0.7,2.7,0.8,2.7,2.3
		C641.9,123.7,639.9,122.2,640.7,120.9z M641.9,147.1c-0.2,0.1-0.2,0.2-0.2,0.3c0.8,0.1,1.8,0.2,2.2,0.5
		C643.1,148.7,639.3,147.1,641.9,147.1z M638.7,102c0.3,0.1,0.7,0.1,1,0.1c0,1-0.3,1.6-1.2,1.3C638.6,102.9,638.7,102.4,638.7,102z
		 M637.9,108.9c1.1,0.1,4.2,0.3,5.3,0.8C643,114.3,637.1,112.7,637.9,108.9z M639.2,134.6c0,0.1,0,0.2,0,0.3c-0.5,0-0.7-0.1-0.5-0.4
		C638.8,134.5,639,134.5,639.2,134.6z M637.6,144.4c0.3,0,0.5,0,0.7,0.1c0-0.4,0-0.9,1.5-0.4c-0.2,0.4-0.4,0.7-0.9,0.9
		c0.1,0.1,0.2,0.1,0.4,0.1c0.1,1.2-1.2,0.3-1.2,1.3C637.2,146.2,637.4,145.3,637.6,144.4z M634.3,78.9c0.8-0.1,0.9,1.2,1-0.2
		c0.4,0.2,0.6,0.6,0.5,1.2C635.3,79.6,633.8,80,634.3,78.9z M632.4,80.1c-0.4,0.3-1,0.4-1.7,0.1C630.7,78.2,632.9,78,632.4,80.1z
		 M631.5,86.7c-0.1,0.9-0.2,1.8-0.7,2.1c-1.6-0.3-2.3-1.4-2.3-2.9C629.8,84.9,629.9,86.9,631.5,86.7z M629.8,102.5
		c-0.8-0.2-0.6-1.5-0.1-1.9C630.7,101,630,101.7,629.8,102.5z M632.1,105.4c-0.2,0.5-2.1,0.7-3.5,0.6
		C626.7,104.2,632.6,104,632.1,105.4z M632.2,120.8c0.2-1.1,1.8-0.4,2.8-0.3c0.2,1.6,1.4,2.5,1.4,4.3
		C633.6,124.6,634.4,121.5,632.2,120.8z M635.7,172.3c-0.6,0-0.3-0.3-0.3-0.4C635.7,171.9,635.8,172.1,635.7,172.3z M635.7,186.3
		c-0.4-0.1-0.2-0.3-0.7-0.3C635.1,185.8,636.1,186.1,635.7,186.3z M636,173c0-0.1,0-0.2-0.2-0.2C636.7,171.2,639.4,173.3,636,173z
		 M638.8,182c-1.3,0.4-1.6-0.3-2.7,0c-1.1-2.3,1.7-3.2,3-1.8C639,180.8,638.9,181.4,638.8,182z M640.7,198.6c-0.6,0-0.3-0.3-0.7-0.4
		c-0.1-0.3,0.9,0.2,0.8-0.1C641.2,198.2,640.8,198.5,640.7,198.6z M650.4,199.6c-0.3,0-0.5-0.1-0.7-0.1c-0.1-0.4,0.3-0.5,0.7-0.6
		C650.5,199.1,650.7,199.5,650.4,199.6z M647,196.9c0.1-0.4,0.5-0.6,1.4-0.6c-1.4-0.4-3.5,0.2-4.6-0.8c-0.2,0-0.3,0-0.5,0.1
		c0.1,0.4,0.1,0.8,0.1,1.4c-0.3,0.1-0.7,0.2-0.8,0.6c-1.8-0.1-2.1-1.8-1.2-3.2c0.9,0,1.5,0.3,1.8,0.8c1.4,0,2.8-0.1,4.3-0.1
		c0-0.3,0.1-0.6,0.1-0.9c0.3,0,0.7,0.1,1,0.1c0,0.3-0.1,0.5-0.1,0.8c0.7,0,1.5,0,2.2,0c-0.6,0.4-1.1,0.8-2.2,0.9
		C652.9,195.9,651.9,198.2,647,196.9z M653.4,213.4c-0.2-0.3-0.4-0.6,0.1-0.7c0.3,0,0.5,0.2,0.5,0.1
		C654.6,213,654,213.5,653.4,213.4z M653.6,195.4c-0.1-0.3,0.2-0.4,0.6-0.4c0-0.2-0.4-0.3-0.9-0.3c0-0.1,0-0.1-0.1-0.2
		c0,0.2,0,0.3-0.1,0.5c-0.8-0.4-2.3-1.3-1.4-2.1c0.3,0.2,0.9,1.8,1.2,0.9c0.3,0,0.3,0.1,0.3,0.3c1,0.5,2.3,0.8,3.2,1.3
		c0.2-1.4,1-1.8,1.4-2.7c0.5,0,0.5,0.4,0.9,0.5c-0.2,1.6-0.7,2.7-2.2,2.3c0.5,0.3,0.9,0.5,1.1,0.9
		C656.4,196.2,655.8,195.2,653.6,195.4z M655.3,189.3c0,0.4-0.9,0.1-1.5,0.1c0.2-0.3-0.1-0.4-0.1-0.6c0.4-0.1,1.2,0.1,1.7,0.3
		C655.3,189.1,655.3,189.2,655.3,189.3z M655.8,191.2c-0.8,0-0.8-0.5-0.5-0.6C656,190.6,655.8,190.9,655.8,191.2z M656.9,186.1
		c2.2-0.1,2.7-1.3,4.1-2c1.4,0.5,0.4,1.5-1,1.3c-1.2,0.9-1.9,2-3.3,2.8C656.9,187.6,657.3,186.9,656.9,186.1z M658.4,191.7
		c-0.2-0.1-0.1-0.3-0.3-0.3c0-0.4,1.2,0,1.5-0.1C660.4,191.5,659.1,191.8,658.4,191.7z M654.6,196.7c0.6,0,0.3,0.2,0.1,0.3
		C654.5,196.9,654.6,196.8,654.6,196.7z M658.3,213.9c-0.3,0.1-0.7,0.1-1.3,0c0-0.1,0-0.2-0.2-0.2c-0.1-0.5,0.8-0.3,1.2-0.4
		C658.3,213.4,658.4,213.7,658.3,213.9z M659.5,207.2c-1.8-0.6-2.3-1.7-4-2.3c0-0.4,0.1-0.6,0.5-0.7c1,0.4,2.1,0.8,2.2,1.5
		c0.9-0.2,1.5,0,2.4,0.4C660.8,206.8,659.3,206.5,659.5,207.2z M663.1,212.4c-0.6,0-0.6-0.1-1.1-0.3c-0.6,0-0.3,0.6-1,0.5
		c-0.2-1,0.7-1.1,2.2-0.9C663.4,211.9,663.3,212.3,663.1,212.4z M660.9,208c0-0.5,1.5-0.3,1.1,0.3C661.4,208.2,661.3,208,660.9,208z
		 M657.3,204.2c2.4,0.4,4.8,1,7.1,1.6C662.5,206.1,658.7,205,657.3,204.2z M663.8,190.8c-0.3,0.2-0.5,0.4-1.2,0.3
		C662,190.6,663.2,190.4,663.8,190.8z M664.9,197.6c-0.5-0.1-0.6-0.4-0.3-0.5C665,197.2,664.9,197.4,664.9,197.6z M664.6,191.5
		c-0.1-0.4,0.5-0.4,0.8-0.2C665.4,191.6,665.1,191.6,664.6,191.5z M666.5,193.1c-0.1,0-0.3,0-0.4,0c0-0.1-0.1-0.1-0.2-0.1
		C665.9,192.8,666.8,193,666.5,193.1z M666.6,192.2c-0.6,0-0.3-0.4-0.5-0.5c0.2,0,0.4,0,0.5,0.1
		C666.6,191.9,666.6,192.1,666.6,192.2z M667,184.6c-1.6-0.3-2.7-0.7-3.8-1.1c-0.5,0.2-1.1,0.6-1.9,0.3c-0.2-0.5,0.6-0.5,0.7-0.8
		c-1.2-1-2.9-1-4.6-1.1c-0.8,0.9-1.6,1.7-2.5,2.5c0.1,0.1,0,0.2-0.2,0.2c-1,1-2.1,2-3.3,2.9c1.1,0.4,2.1,1,1.6,1.6
		c-0.9-0.2-1.9-0.7-2.2-1.1c-1.2,1-2.5,1.8-3.8,2.6c0.9,0.6,1.3,1.3,1.7,2.1c-1.4-0.4-1.8-1.1-2.1-1.9c-1,0.5-1.9,1-3,1.4
		c-0.1-0.7-0.3-1.3-0.2-2.2c1-0.4,2-1,2.9-1.6c0-0.1,0-0.1,0-0.2c0,0,0.1,0,0.2,0.1c0.5-0.3,1-0.7,1.4-1c-0.5,0.1-1.2,0-1.7-0.4
		c0.5-0.5,0.9-1,2.4-0.9c0.2,0.1,0.3,0.3,0.3,0.4c2.1-1.9,4-4,6-5.9c-4.3,1-9.4,0.7-13.5,0.9c0.5,0.4,0.5,1.6-1.3,1.7
		c0.1-1,0.4-1.5,0.6-1.7c-0.3,0-0.5,0-0.8,0c0.7-3.1,4.2-1.5,6.4-1.7c3.5-0.3,7.5-1.5,10.7-1.2c1-0.8,2.1-1.5,3.2-2.1
		c0.1,1.5-0.7,3-1.5,3.9c-0.2,0.3-0.5,0.5-0.7,0.8c2.1,0.1,4.3,0.5,4.1,1.8C663,183.2,668,183.3,667,184.6z M644,183.7
		c0.3,0,0.6,0.1,0.9,0.1C645.2,184.4,643.7,184.1,644,183.7z M668.1,192.6c-0.6-0.2-1-0.8-0.4-0.9c0.1,0.1,0.3,0.1,0.5,0.2
		C668.1,192.1,668.1,192.4,668.1,192.6z M668.8,187.3c-0.7-0.2-0.5-0.5,0.3-0.4C669.2,187.1,668.8,187,668.8,187.3z M669.2,184.6
		c0.3,0.1,0.1,0.3,0.1,0.4C668.9,184.9,669,184.7,669.2,184.6z M669.4,187.8c-0.2-1,0.7-1,1.1-0.5
		C670.3,187.6,669.8,187.6,669.4,187.8z"/>
	<path class="st0" d="M671,190.6c-0.4-0.4,0.5-0.7,0.5-1.1c1.6,0.9,4,0.4,5.7,1.3c0.2-0.2,0.7-0.2,1.1-0.2c1.6-3.6,3.2-7.5,4.5-11.6
		c-0.5-0.1-0.8-0.2-1-0.3c0-0.2,0.1-0.5,0.1-0.7c0.3-0.4,0.8-0.6,1.4-0.8c0.8-2.5,1.4-5,2-7.6c-0.3,0.6-0.7,0.9-1.3,0.8
		c-0.5-1.5,0.4-2,0.8-3.3c0.3,0,0.7,0.1,1,0.1v0c1-4.6,1.6-9.4,2-14.5c-0.3,0.3-0.7,0.6-1,0.6c-2.3-0.9-0.5-1.1,0.8-1.7
		c0.1,0,0.2,0.1,0.2,0.2c0.3-4.5,0.2-9.2-0.1-14.1c0,0-0.1,0.1-0.2,0.1c-1-0.2,0.2-0.8-0.8-0.9c0.2-0.1,0.6-0.1,0.9,0
		c0-0.3,0-0.6-0.1-1c-0.1-1.5-0.3-3-0.5-4.5c0,0-0.1,0-0.1,0c-0.2-0.1,0-0.1,0.1-0.1c-0.8-6.4-2.2-12.3-4-17.9
		c-0.2-0.1-0.2-0.2-0.2-0.4c0,0,0,0,0,0c-4.2-12.9-10.4-23.7-16.9-32.4c-2.6,0.6-5.1,0.6-7.1-1.7c0.5-1.3,2.1-1,3-1.8
		c1.1-0.2,0.5,1.1,1.2,1.3c0.4,0,0.5-0.5,0.7-0.8c-6.9-8.6-13.8-14.9-18.7-18.8c-0.1,0-0.1,0-0.2,0c0-0.1-0.1-0.1-0.1-0.2
		c-2.8-2.2-4.9-3.6-5.8-4.3c-4.5,5.2-9.5,12-14.3,20.4c-0.4,0.8-0.8,1.5-1.3,2.3c3-0.2,5.7,0.1,5.5,2.2c-0.3,4.6-5.7-3.1-6.1,2.1
		c-0.7,0-1.1-0.2-1.4-0.5c-1.7,3.4-3.1,6.6-4.3,9.6c0.3,0,0.6,0.1,0.9,0.1c0.5,0.4,0.3,1.3-0.6,1.2c-0.9-0.3-0.5-0.7-0.4-1.2
		c-1,2.5-1.8,4.9-2.6,7.1c0,0,0,0,0,0c0.8-0.6,2.5-0.9,3.9-1.2c-0.1,0.8-1.4,1.8-3.2,1.8c3.5,3.1,14.3,13.8,17.8,30.5
		c0.6,0.5,0.8,1.5,0.4,2c0.5,3,0.8,6.2,0.7,9.6c-0.2,9.9-3.1,18-6.2,24.1c-0.3,1.3-0.7,2.4-1.3,3.4c1.3,0.1,2.5,0.6,2.2,1.2
		c-0.9,0-1.8-0.2-2.7-0.5c-0.4,0.6-0.9,1.2-1.4,1.7c-0.1,0.3-0.3,0.6-0.6,0.6c-0.2,0.2-0.5,0.4-0.7,0.6c-0.6,0.9-1.3,1.7-1.8,2.3
		c1.6,1.1,3.3,2.2,5.7,2.8c-0.1,0.5-1.3,0.3-2.1,0.4c0-1-2-1.8-4-2.6c-0.4,0.5-0.8,0.9-1,1.2c3.9,5.5,8.3,11.3,13.1,17.2
		c0.1,0,0.1-0.1,0.2-0.1c0.2,0,0.3,0.1,0.4,0.1c2.2-1.6,5.7,0.2,8.7-1.6c-0.8,1.5-2.3,2.4-4,3c0.2,0,0.4,0.1,0.7,0.1
		c-0.1,0.3,0.5,0.3,0.3,0.6c-1.3-0.3-2.6-0.2-3.9-0.1c-0.1,0-0.3,0-0.4,0c-0.1,0-0.2,0-0.3,0c0.6,0.8,1.3,1.5,1.9,2.3
		c4.3,5.1,8.7,9.9,12.9,14.4c0,0,0.1-0.1,0.1-0.1c0.7,0,0.5,0.4,0.5,0.6c0,0-0.1,0-0.1,0c2.7,2.9,5.4,5.6,8.1,8.2
		c0.9-1,2.9-3.1,5.3-6.3c-1,0.1-3-0.1-3.5-0.5c1-0.8,2.3,0.2,3.7,0.2c0.8-1.1,1.8-2.3,2.7-3.6c-0.3,0-0.6-0.1-0.8-0.2
		c0.1-0.3,0.3-0.4,1-0.2c0,0.1,0,0.1,0,0.2c3.5-4.9,7.4-11.3,11-19C676.1,191.7,672.8,190.5,671,190.6z M620.1,103.3
		c-0.4-0.2-0.6-0.6-0.5-1.2C620.4,102.1,620.2,102.7,620.1,103.3z M620.9,87c-0.1-1.4,1-1.7,1.5-0.9C622,86.6,621.9,87.5,620.9,87z
		 M624.5,96.1c-0.8-0.5,0.4-1.5,1.2-0.9C625.5,95.8,624.5,95.2,624.5,96.1z M623.4,88.1c0.4-1,1.1-1.7,1.7-2.4
		c-0.2-0.5-0.6-0.8-1.2-0.9c0.1-0.6,0.2-1.2,0.3-1.8c1.5,0.1,1.9-0.1,2.9,0.8c-1.4,1.2-2,2.3-1.4,4.7
		C624.5,88.3,624.4,88.8,623.4,88.1z M626.7,102.8c-1-0.5-0.9-1.6-0.3-2.7C627.6,100.2,627.3,102.2,626.7,102.8z M623.6,178.3
		c-0.6,0-1,0.1-1.1-0.4C622.9,177.9,623.9,178,623.6,178.3z M624.2,181.1c0.4-0.8,2.3-0.3,3.2-0.1
		C627.1,181.6,625.4,181.6,624.2,181.1z M628,173.4c-0.5,0-0.7-0.1-0.5-0.4c0.2,0,0.4,0,0.5,0.1C628,173.2,628,173.3,628,173.4z
		 M628.1,166.5c0-0.8,0.5-1,1-0.9c-0.2-0.1-0.3-0.1-0.5-0.2c0-0.2,0-0.5,0.3-0.5c1,0.4,1.1,0,2.1,0.1c-0.2,0.5-0.2,0.6,0,1.1
		c-0.6,0.1-0.9-0.1-1.3-0.3c0.2,0.2,0.3,0.4,0.4,0.6c0.2,0,0.4,0.1,0.6,0.1c0,0.2-0.1,0.4-0.1,0.6c-0.3,0-0.6-0.1-0.9-0.1
		c0-0.2,0-0.3,0.1-0.4C628.9,166.6,629.1,166.3,628.1,166.5z M629.5,177.1c0-0.5,1.1-0.6,1.8-0.3
		C631.4,177.4,630.2,177.4,629.5,177.1z M671.8,185.3c-0.6,0-0.8-0.2-0.7-0.5c0.4,0.1,0.4-0.1,0.9,0
		C672.1,185.1,671.9,185.3,671.8,185.3z M672.9,185.3c-0.1-0.4,0.4-0.4,0.7-0.6c0.2,0.1,0.3,0.2,0.5,0.3
		C674,185.3,673.7,185.5,672.9,185.3z M676.8,185.8c-0.6-0.3,0.1-1.1,0.6-0.8C677.4,185.5,676.8,185.2,676.8,185.8z M680.8,176.9
		c0.5-1,1.6-1.5,1.9-2.4C683.3,175.1,682.2,176.5,680.8,176.9z M678.4,130.1c0.2,0.2,0.5,0.7-0.3,0.5
		C678.6,130.5,678.1,130.2,678.4,130.1z M679.2,131.2c-0.2,0-0.4,0-0.6-0.1c-0.1-0.3,0.2-0.3,0.3-0.5
		C679.5,130.8,678.9,130.9,679.2,131.2z M679.7,132.7c0.1,0.2,0.3,0.4,0.3,0.6c-0.2,0-0.4,0-0.5-0.1c0.5-0.2-0.3-0.5-0.7-0.4
		C678.5,132.6,679.3,132.7,679.7,132.7z M678.3,132c-0.2-0.2,0-0.5,0.1-0.6c0.1,0.1,0.3,0.1,0.5,0.2
		C678.8,131.7,678.4,131.7,678.3,132z M679.3,175.5c-0.3,0.1-1.1,0.1-1.1-0.3C678.8,175.2,678.8,175.3,679.3,175.5z M678.7,165.7
		c0.8-0.1,1.5,0.4,1.4,0.9C679.1,166.4,678.7,166.1,678.7,165.7z M679.9,132.9c0-0.1,0-0.2-0.2-0.2c0-0.2,0.6,0.2,1.1,0.2
		C681,133.1,680.3,132.9,679.9,132.9z M682.4,119.8c-0.1,0.1-0.6,0-0.4,0.3c-0.7-0.2-0.6-0.1-0.9-0.4
		C681.4,119.8,681.7,119.9,682.4,119.8z M680.7,129.8c-0.2-0.1-0.3-0.3-0.3-0.4C680.7,129.5,681.1,129.7,680.7,129.8z M682.9,173.8
		c-0.4-0.1,0-0.5-0.1-0.8C683.4,173.1,683.2,173.7,682.9,173.8z M683,172.2c-0.4-0.1,0-0.5-0.1-0.8
		C683.3,171.6,683.3,172.1,683,172.2z M683.5,167.6c-0.4-0.1-0.4-0.3-0.1-0.4C683.6,167.3,683.5,167.5,683.5,167.6z M683.2,149
		c0.7,0,0.2,0.5,0.3,0.7C682.7,149.7,682.9,149.1,683.2,149z M685.4,152.3c0,0.2-0.1,0.4-0.1,0.6C681.8,153,682.8,150.8,685.4,152.3
		z M686.4,154.1c0.3,0.3-0.3,0.7,0,1.1c-0.7,0-0.8,0.4-1.7,0.1C684.5,154.5,685,154,686.4,154.1z M686.6,148.8
		c0.1-0.3,0.3-0.6,0.6-0.5C687.3,148.8,686.9,148.7,686.6,148.8z M687.1,138.6c0.8,1.8-0.2,4.4-1.5,6.2c1,0.3,1.5,1,1,1.5
		c-1.1-0.1-1.4-0.4-1.5-0.9c-0.5,0.6-1,1-1.6,1.2C683.4,143.9,686.4,141.8,687.1,138.6z M684.7,136.3c0.3,0.1,0.4,0.2,0.7,0.3
		c0,0.3-0.1,0.7-0.2,1c-0.6,0-0.7-0.2-1.1-0.3C684.5,136.6,683.7,136.7,684.7,136.3z M683.8,118.1c-0.1,0.2-1-0.1-1.1-0.2
		C682.9,117.7,683.3,118.1,683.8,118.1z M682.3,113.1c0.6,0.1,0,0.3,0.3,0.3C682.3,113.7,682.1,113.3,682.3,113.1z M682.1,118.2
		c0.5,0.2,0,0.3,0.5,0.6c-0.7-0.2-0.4,0.2-1,0C682.4,118.5,681.3,118.6,682.1,118.2z M680.7,120.1c-0.2-0.1-0.3-0.3-0.7-0.4
		C680.2,119.5,680.9,119.9,680.7,120.1z M679.6,118.3c0.5,0.1,0.8,0.3,0,0.3C679.6,118.5,679.6,118.4,679.6,118.3z M679.9,119.1
		c0.3,0.1,0,0.2-0.2,0.2c0,0.1,0,0.2,0.2,0.2c-0.3,0.2-0.6-0.2-0.5-0.4C679.6,119.1,679.8,119.2,679.9,119.1z M679,118.8
		c-0.4-0.1-0.5-0.3-0.5-0.5C679.1,118.3,679,118.5,679,118.8z M678.2,116c0.2,0,0.4,0.1,0.6,0.1c0.1,0.2-0.4,0.1-0.4,0.2
		C678.2,116.3,678.3,116.1,678.2,116z M678.3,116.8c0.1,0.1,0.3,0.1,0.5,0.2c-0.2,0.1-0.2,0.2-0.2,0.3
		C678.2,117.1,678.1,117,678.3,116.8z M678.4,129.3c0.4,0.1,0,0.5,0.1,0.7c-0.8-0.3-1.6,0.1-1.4-0.7
		C677.5,129.3,678.1,129.4,678.4,129.3z M677.6,119.2c-0.7,0.1-1-0.5-1.2-0.7c0.6,0,0.4,0,1.1,0.2
		C677.1,118.9,677.6,118.9,677.6,119.2z M676,130c0.4,0,0.6,0.6-0.1,0.5C676.3,130.3,676,130.2,676,130z M676.1,112
		c1.2-0.1,0.4,1.3,0.1,1.5C675.7,113.3,676,112.5,676.1,112z M675.7,131.7c0.3,0,0.4-0.1,0.4-0.3c0.3,0.1,0.1,0.3,0.1,0.4
		c-0.3-0.1-0.4,0.1-0.8,0c0-0.1,0-0.2-0.2-0.2C675.5,131.4,675.7,131.6,675.7,131.7z M674.9,116.7c0.5,0.9,0,2.3-1.1,1.9
		C674.2,117.9,674,116.6,674.9,116.7z M674.5,123.3c0-0.2,0-0.4,0-0.5c0.1,0,0.3,0,0.4,0c0,0.2,0,0.4,0,0.5
		C674.8,123.3,674.6,123.3,674.5,123.3z M671.9,171.5c-0.6-0.2-0.9-0.5-0.5-0.7C672.4,170.8,672.3,171.4,671.9,171.5z M671.2,162.6
		c0.5,0.1,0.7,0.2,0.7,0.5C671.3,163,671,162.9,671.2,162.6z M672.9,172.8c1.4,0.1,0,2.6,0.1,3.8c1.2,1,2.7,1,4.3,0.9
		c0.4-0.1,0.8-0.1,1.3-0.1c0.4,0,0.8-0.1,1.2-0.1c0,0.1-0.1,0.1-0.1,0.1c0.4,0,0.9,0.1,1.3,0.2c-0.5,0.3-1,0.4-1.7,0.4
		c-1.6,1.8-4.8,2.1-7.9,2c0.1,0.1,0.1,0.3-0.1,0.6c-1.4-0.2-1.5-0.5-1.1-0.7c-2.5-0.2-4.8-0.6-6.3-0.9c1.2-1.3,3.3-1.1,5.4-1.1
		c0-0.7,1.1-0.4,1.3,0c0.2,0,0.4,0,0.6,0C671.3,175.5,672.2,174.4,672.9,172.8z M660.7,175.5c-1.3,0.2-0.2,1.2-1.9,1.1
		c0.1-0.5,0.6-0.9,1.1-1.2c0.1-0.2-0.7-0.1-0.9-0.2c0-0.4-0.4-0.5-0.1-0.8c2.1,0.7,4,0.4,6.5,0.9
		C665.2,176.7,661.9,175.3,660.7,175.5z M662.2,181.2c-0.2,0.1-0.4,0.3-1,0.1c0.3-0.1,0.3-0.4,0.8-0.3
		C662,181.1,662.1,181.2,662.2,181.2z M660.3,180c-0.7,0-0.7-0.5,0-0.4C660.6,179.8,660.3,179.7,660.3,180z M658.5,173.9
		c-0.8-0.2-0.1-1.1,0-1.4C659,172.9,659.1,173.8,658.5,173.9z M655.9,172.7c0.6,0,0.7,0.6,0.3,0.6
		C655.5,173.3,656,172.9,655.9,172.7z M656.2,170.5c0-0.1-0.2-0.1-0.4-0.1c0-0.2,0.1-0.4,0.3-0.4c0.5,0,0.5,0.2,0.9,0.2
		C656.9,170.3,656.8,170.6,656.2,170.5z M655.4,157c0.1-0.2-0.3-0.3-0.1-0.5c0.9,0.5,3.4,0.4,3,1.2
		C657.2,157.4,656.7,157.1,655.4,157z M650.8,174.9c1-0.5,2.8-0.5,4.8-0.2C654.7,174.9,652.6,175.3,650.8,174.9z M653.9,178.5
		c-0.5-0.1-1-0.3-0.9-0.6C653.8,178,654.1,178.2,653.9,178.5z M647.2,175.2c2.4-0.9,0-3-0.1-4.5c1,0.1,1.2,0.4,1.6,0.7
		c1.2-0.1,2.1,0.5,3.1,0.7c0.1,1-1.7,0.5-2.9,0.4C649.4,173.6,649.9,175.5,647.2,175.2z M644.9,155c0.2-0.4,1.8-0.3,1.7,0.3
		C645.7,155.1,645.4,155.2,644.9,155z M645.7,171.2c0,0.3-0.3,0.3-0.5,0.5c-0.4-0.1-0.5-0.3-0.5-0.5
		C645.3,171.3,645.2,171.1,645.7,171.2z M646.7,174.8c0,0.1,0,0.2,0.2,0.2c-0.3,0.1-0.5,0.3-1.2,0.1
		C645.6,174.8,646.1,174.8,646.7,174.8z M644.8,141.3c-0.1-0.6,1.3-0.3,2.3-0.1C647.1,141.7,645.6,141.6,644.8,141.3z M644.8,88.3
		c0-0.7,0.5-0.7,0.5-1.4c0.2,0.2,0.5,0.5,0.9,0.5C646.3,88.4,645.5,88.2,644.8,88.3z M653.8,156.3c-0.7,0.2-3-0.1-3.1-0.7
		C651.9,155.7,652.9,155.9,653.8,156.3z M652.6,150.3c0.4,0.1,0.7,0.5,0.3,0.6C652,150.8,652.4,150.5,652.6,150.3z M652.7,168.6
		c0.3,0,0-0.3,0.3-0.4c0.2,0.1,0.4,0.2,0.7,0.2c-0.2,0.2-0.3,0.4-0.6,0.5c-0.1,0.3,0.9,0.2,0.7,0.5c-1.3,0.2-2.1-1-4-1.2
		c-0.5-0.1-0.3,0.4-0.6,0.5C646.8,167,651.6,167.7,652.7,168.6z M652.3,172.4c-0.5-0.1-0.4-0.4-0.1-0.5
		C652.7,172,652.6,172.3,652.3,172.4z M649.6,157.3c0-0.2,0-0.5,0.3-0.5C650.7,156.9,650.4,157.4,649.6,157.3z M650.1,139
		c-0.9-0.4-1-1.5-0.3-1.9C650.9,137.4,650.4,138.6,650.1,139z M648.9,127.4c0.2-1.1,2-0.6,2.4,0C651.4,129,648.9,128.4,648.9,127.4z
		 M650,154.8c0,1-0.9,1.4-2.6,1.2C647.5,155.3,648.1,154.6,650,154.8z M646.7,103.1c0.3-0.7,0.9-1.4,1.4-0.5
		C648,103.2,647.5,103.4,646.7,103.1z M654.2,171.1c-0.1-0.5-0.5-0.9-1.6-1c0.2-0.3-0.3-0.3-0.1-0.6c1.4,0.4,3,0.8,3.2,1.6
		C654.9,170.9,655,171.3,654.2,171.1z M664.9,133.4c-0.3-0.1-0.4-0.3-0.1-0.4C665,133.2,665.5,133.3,664.9,133.4z M666.5,132.9
		c0.4,0.2-0.2,0.2,0.1,0.5c0,0,0,0,0,0c-0.1-0.1-0.3-0.3-0.6-0.3C666.2,133,666.4,133,666.5,132.9z M665.7,159.9
		c-0.4-0.1-0.9-0.2-0.7-0.5C665.4,159.5,665.9,159.6,665.7,159.9z M665.8,165.4c-0.8,2.2-1.8,4.1-3.6,5
		C661.7,167.6,664.1,165.3,665.8,165.4z M665.1,170.2c-0.1,0.5-0.1,1-0.2,1.5c-0.4-0.1-0.9-0.1-1.3-0.2
		C663.5,170.3,664.1,169.9,665.1,170.2z M667.5,163.7c-0.7-0.3,0.5-0.5,0.4-0.8C668.7,163.3,667.4,163.3,667.5,163.7z M667.3,131.5
		c0.1,0.2,0.7,0.3,0.7,0.6C667.2,132,667.1,131.8,667.3,131.5z M667.9,177c0.1,0.3-0.3,0.2-0.3,0.4c-0.7,0-0.5-0.4-0.5-0.6
		C667.6,176.8,667.7,177,667.9,177z M669.8,131.8c0.5-0.4,0.7,0.7,0.9,0.1c0.5,0.2-0.2,0.3-0.1,0.5c-0.3,0-0.5-0.6-0.9-0.3
		C669,131.9,670.5,132,669.8,131.8z M670,170.7c0.1,0.3,0.5,0.6,0.4,1C669.2,171.7,669.9,171,670,170.7z M670.1,168.9
		c0.6-0.2,1.2,0.2,0.9,0.6C670.6,169.3,669.8,169.2,670.1,168.9z M670.8,130.7c-0.3-0.1-0.1-0.3-0.1-0.4c-0.2,0-0.3,0-0.6,0
		C670.2,129.8,671.2,130.4,670.8,130.7z M670.1,128.8c-0.1,0.1-0.3,0.2,0,0.3c-0.2,0.2-0.4-0.3-0.5-0.4c-0.2,0-0.3,0-0.6,0
		C669.2,128.4,669.5,128.7,670.1,128.8z M669,131.3c0.6-0.2,0.1-0.8,1.1-0.9c0.2,0.5-0.6,0.3-0.5,0.7c0.3,0,0.4,0.2,0.9,0.4
		c-0.5,0.2-1.5-0.2-2-0.3C668.5,131,669,131.1,669,131.3z M668.7,130.5C668.9,130.6,668.8,130.7,668.7,130.5c-0.1,0.2,0,0.2,0.2,0.2
		c-0.1,0.1-0.5,0-0.8,0C668.1,130.5,668.7,130.7,668.7,130.5z M665.8,104.8c-0.2,3.1-0.9,3.3,0.2,5.8c0.6,0.2,0.5-0.4,1.1-0.3
		c-1.2,1.7-1.9,4.9,0.2,6.1c-0.6,0.6-1.7,0.4-1.7,1.7c0.2,0.8,1.5,0.2,1.7,1.1c-0.6,1.5-2.5,0.3-3.8,0.3
		C662.7,113.6,663.2,107.2,665.8,104.8z M667,112.8c-0.3-0.1-0.4,0-0.4,0.1C666.3,112.8,667.4,112,667,112.8z M663.6,142.1
		c0,0.1,0,0.3-0.1,0.5c-0.5-0.1-0.9-0.3-0.7-0.6C663.1,142.1,663.4,142.1,663.6,142.1z M662,105.3c0.7,1.6,1.3,3.3,0.6,5.3
		C661.9,109.4,661.3,106.7,662,105.3z M660.7,122.7c-0.8-3.8-2-10.6,0-13.6C662.2,112,664.5,121.1,660.7,122.7z M661.6,158.3
		c-0.6,0-0.8-0.2-1.3-0.3c0-0.2,0.3-0.2,0.2-0.3C661.2,158,661.4,157.9,661.6,158.3z M659.6,105.6c0.3-0.1,0.4,0.3,0.6,0.3
		c0.2,0.9-0.3,0.9-0.4,1.4C659.2,107.2,659.3,105.9,659.6,105.6z M658.9,133.7c1.3-0.9,1.3,1.3,2.1,1.8c-0.2,0.5-1,0-1.1,0.6
		c0.4,0.9,0.9,1,1.2,1.3c0.3,0.9-1.1,2.3-2.4,2.3C659.1,136.9,660,135.5,658.9,133.7z M659.9,157.9c-0.2-0.1-0.5-0.2-0.9-0.2
		c0-0.3,0.4-0.2,1-0.1C659.7,157.7,660,157.7,659.9,157.9z M658.5,171.7c2,0.2,3.2,0.8,3.3,1.8c-0.8-0.4-2.7-0.9-3.6-1.5
		C658.2,171.8,658.5,171.9,658.5,171.7z M657.9,105.2c-0.5-0.1-0.9-0.1-1.1-0.3c0-0.6,0.9-0.5,1.5-0.1
		C658.3,105,658,105,657.9,105.2z M656.5,76.2c1,0.2,1.5,0.7,1.1,2c-0.8,0-0.6-0.8-1.6-0.6C655.9,76.8,656.3,76.6,656.5,76.2z
		 M656.5,126.7c0.3,1.5,1.2,4.1-0.7,4.8c-0.7,0.1-0.6-0.6-0.5-1.2c-0.5,0.4-1.2,0.7-1.8,0.8c0.1,0,0.1,0,0.2,0.1c0,1-2,0.6-2.6,1.1
		c-2.1-0.7-0.3-1.5,1.5-1.4c-0.3-0.1-0.5-0.4-0.7-0.7c0.2-0.3,0.4-0.5,0.5-1c1.1,0.5,1.4-0.4,2.4,0c0-1.4-0.2-1.8,0.7-2.5
		C655.9,126.6,656.2,126.6,656.5,126.7z M652.9,84.6c-1-0.1-1.1-1.6-0.3-2.3c0.5,0,0.5,0.4,0.9,0.5
		C653.5,83.7,652.7,83.5,652.9,84.6z M644.8,72.6c-0.5,0.7-1.3,1.1-2.2,1.2C642.8,72.6,643.6,72.2,644.8,72.6z M649.9,76.7
		c-1,0.9-0.2,2,0.7,2.3c1.5,0.2,1.6-1.7,3-1.8c0.5,1.4,2.3,1.7,1.8,4c-4.2,0.9-13.7,1.5-14.8-5.6C642.6,77.8,646.7,76.5,649.9,76.7z
		 M636.5,169.6c1.7,0.3,2,0.9,3.6,1.2C639.5,171.6,635.4,170.9,636.5,169.6z M636.1,146.6c0.8,0.2,1.2,0.1,1.9,0.2
		c0.1,0.4-0.3,0.4-0.5,0.6C636.5,147.2,636,147,636.1,146.6z M642.2,177.3c0.3,1.9-0.8,2.1-2.1,1.9
		C640.1,177.7,640.9,177.2,642.2,177.3z M641.4,168.1c0.2-0.1,0.4-0.3,1-0.1C642.5,168.4,641.7,168.3,641.4,168.1z M639.2,154.7
		c0.6-0.7,2.3,0.2,3.2,0C642,155.1,640.1,154.9,639.2,154.7z M640.7,120.9c1.3-0.7,2.7,0.8,2.7,2.3
		C641.9,123.7,639.9,122.2,640.7,120.9z M641.9,147.1c-0.2,0.1-0.2,0.2-0.2,0.3c0.8,0.1,1.8,0.2,2.2,0.5
		C643.1,148.7,639.3,147.1,641.9,147.1z M638.7,102c0.3,0.1,0.7,0.1,1,0.1c0,1-0.3,1.6-1.2,1.3C638.6,102.9,638.7,102.4,638.7,102z
		 M637.9,108.9c1.1,0.1,4.2,0.3,5.3,0.8C643,114.3,637.1,112.7,637.9,108.9z M639.2,134.6c0,0.1,0,0.2,0,0.3c-0.5,0-0.7-0.1-0.5-0.4
		C638.8,134.5,639,134.5,639.2,134.6z M637.6,144.4c0.3,0,0.5,0,0.7,0.1c0-0.4,0-0.9,1.5-0.4c-0.2,0.4-0.4,0.7-0.9,0.9
		c0.1,0.1,0.2,0.1,0.4,0.1c0.1,1.2-1.2,0.3-1.2,1.3C637.2,146.2,637.4,145.3,637.6,144.4z M634.3,78.9c0.8-0.1,0.9,1.2,1-0.2
		c0.4,0.2,0.6,0.6,0.5,1.2C635.3,79.6,633.8,80,634.3,78.9z M632.4,80.1c-0.4,0.3-1,0.4-1.7,0.1C630.7,78.2,632.9,78,632.4,80.1z
		 M631.5,86.7c-0.1,0.9-0.2,1.8-0.7,2.1c-1.6-0.3-2.3-1.4-2.3-2.9C629.8,84.9,629.9,86.9,631.5,86.7z M629.8,102.5
		c-0.8-0.2-0.6-1.5-0.1-1.9C630.7,101,630,101.7,629.8,102.5z M632.1,105.4c-0.2,0.5-2.1,0.7-3.5,0.6
		C626.7,104.2,632.6,104,632.1,105.4z M632.2,120.8c0.2-1.1,1.8-0.4,2.8-0.3c0.2,1.6,1.4,2.5,1.4,4.3
		C633.6,124.6,634.4,121.5,632.2,120.8z M635.7,172.3c-0.6,0-0.3-0.3-0.3-0.4C635.7,171.9,635.8,172.1,635.7,172.3z M635.7,186.3
		c-0.4-0.1-0.2-0.3-0.7-0.3C635.1,185.8,636.1,186.1,635.7,186.3z M636,173c0-0.1,0-0.2-0.2-0.2C636.7,171.2,639.4,173.3,636,173z
		 M638.8,182c-1.3,0.4-1.6-0.3-2.7,0c-1.1-2.3,1.7-3.2,3-1.8C639,180.8,638.9,181.4,638.8,182z M640.7,198.6c-0.6,0-0.3-0.3-0.7-0.4
		c-0.1-0.3,0.9,0.2,0.8-0.1C641.2,198.2,640.8,198.5,640.7,198.6z M650.4,199.6c-0.3,0-0.5-0.1-0.7-0.1c-0.1-0.4,0.3-0.5,0.7-0.6
		C650.5,199.1,650.7,199.5,650.4,199.6z M647,196.9c0.1-0.4,0.5-0.6,1.4-0.6c-1.4-0.4-3.5,0.2-4.6-0.8c-0.2,0-0.3,0-0.5,0.1
		c0.1,0.4,0.1,0.8,0.1,1.4c-0.3,0.1-0.7,0.2-0.8,0.6c-1.8-0.1-2.1-1.8-1.2-3.2c0.9,0,1.5,0.3,1.8,0.8c1.4,0,2.8-0.1,4.3-0.1
		c0-0.3,0.1-0.6,0.1-0.9c0.3,0,0.7,0.1,1,0.1c0,0.3-0.1,0.5-0.1,0.8c0.7,0,1.5,0,2.2,0c-0.6,0.4-1.1,0.8-2.2,0.9
		C652.9,195.9,651.9,198.2,647,196.9z M653.4,213.4c-0.2-0.3-0.4-0.6,0.1-0.7c0.3,0,0.5,0.2,0.5,0.1
		C654.6,213,654,213.5,653.4,213.4z M653.6,195.4c-0.1-0.3,0.2-0.4,0.6-0.4c0-0.2-0.4-0.3-0.9-0.3c0-0.1,0-0.1-0.1-0.2
		c0,0.2,0,0.3-0.1,0.5c-0.8-0.4-2.3-1.3-1.4-2.1c0.3,0.2,0.9,1.8,1.2,0.9c0.3,0,0.3,0.1,0.3,0.3c1,0.5,2.3,0.8,3.2,1.3
		c0.2-1.4,1-1.8,1.4-2.7c0.5,0,0.5,0.4,0.9,0.5c-0.2,1.6-0.7,2.7-2.2,2.3c0.5,0.3,0.9,0.5,1.1,0.9
		C656.4,196.2,655.8,195.2,653.6,195.4z M655.3,189.3c0,0.4-0.9,0.1-1.5,0.1c0.2-0.3-0.1-0.4-0.1-0.6c0.4-0.1,1.2,0.1,1.7,0.3
		C655.3,189.1,655.3,189.2,655.3,189.3z M655.8,191.2c-0.8,0-0.8-0.5-0.5-0.6C656,190.6,655.8,190.9,655.8,191.2z M656.9,186.1
		c2.2-0.1,2.7-1.3,4.1-2c1.4,0.5,0.4,1.5-1,1.3c-1.2,0.9-1.9,2-3.3,2.8C656.9,187.6,657.3,186.9,656.9,186.1z M658.4,191.7
		c-0.2-0.1-0.1-0.3-0.3-0.3c0-0.4,1.2,0,1.5-0.1C660.4,191.5,659.1,191.8,658.4,191.7z M654.6,196.7c0.6,0,0.3,0.2,0.1,0.3
		C654.5,196.9,654.6,196.8,654.6,196.7z M658.3,213.9c-0.3,0.1-0.7,0.1-1.3,0c0-0.1,0-0.2-0.2-0.2c-0.1-0.5,0.8-0.3,1.2-0.4
		C658.3,213.4,658.4,213.7,658.3,213.9z M659.5,207.2c-1.8-0.6-2.3-1.7-4-2.3c0-0.4,0.1-0.6,0.5-0.7c1,0.4,2.1,0.8,2.2,1.5
		c0.9-0.2,1.5,0,2.4,0.4C660.8,206.8,659.3,206.5,659.5,207.2z M663.1,212.4c-0.6,0-0.6-0.1-1.1-0.3c-0.6,0-0.3,0.6-1,0.5
		c-0.2-1,0.7-1.1,2.2-0.9C663.4,211.9,663.3,212.3,663.1,212.4z M660.9,208c0-0.5,1.5-0.3,1.1,0.3C661.4,208.2,661.3,208,660.9,208z
		 M657.3,204.2c2.4,0.4,4.8,1,7.1,1.6C662.5,206.1,658.7,205,657.3,204.2z M663.8,190.8c-0.3,0.2-0.5,0.4-1.2,0.3
		C662,190.6,663.2,190.4,663.8,190.8z M664.9,197.6c-0.5-0.1-0.6-0.4-0.3-0.5C665,197.2,664.9,197.4,664.9,197.6z M664.6,191.5
		c-0.1-0.4,0.5-0.4,0.8-0.2C665.4,191.6,665.1,191.6,664.6,191.5z M666.5,193.1c-0.1,0-0.3,0-0.4,0c0-0.1-0.1-0.1-0.2-0.1
		C665.9,192.8,666.8,193,666.5,193.1z M666.6,192.2c-0.6,0-0.3-0.4-0.5-0.5c0.2,0,0.4,0,0.5,0.1
		C666.6,191.9,666.6,192.1,666.6,192.2z M667,184.6c-1.6-0.3-2.7-0.7-3.8-1.1c-0.5,0.2-1.1,0.6-1.9,0.3c-0.2-0.5,0.6-0.5,0.7-0.8
		c-1.2-1-2.9-1-4.6-1.1c-0.8,0.9-1.6,1.7-2.5,2.5c0.1,0.1,0,0.2-0.2,0.2c-1,1-2.1,2-3.3,2.9c1.1,0.4,2.1,1,1.6,1.6
		c-0.9-0.2-1.9-0.7-2.2-1.1c-1.2,1-2.5,1.8-3.8,2.6c0.9,0.6,1.3,1.3,1.7,2.1c-1.4-0.4-1.8-1.1-2.1-1.9c-1,0.5-1.9,1-3,1.4
		c-0.1-0.7-0.3-1.3-0.2-2.2c1-0.4,2-1,2.9-1.6c0-0.1,0-0.1,0-0.2c0,0,0.1,0,0.2,0.1c0.5-0.3,1-0.7,1.4-1c-0.5,0.1-1.2,0-1.7-0.4
		c0.5-0.5,0.9-1,2.4-0.9c0.2,0.1,0.3,0.3,0.3,0.4c2.1-1.9,4-4,6-5.9c-4.3,1-9.4,0.7-13.5,0.9c0.5,0.4,0.5,1.6-1.3,1.7
		c0.1-1,0.4-1.5,0.6-1.7c-0.3,0-0.5,0-0.8,0c0.7-3.1,4.2-1.5,6.4-1.7c3.5-0.3,7.5-1.5,10.7-1.2c1-0.8,2.1-1.5,3.2-2.1
		c0.1,1.5-0.7,3-1.5,3.9c-0.2,0.3-0.5,0.5-0.7,0.8c2.1,0.1,4.3,0.5,4.1,1.8C663,183.2,668,183.3,667,184.6z M644,183.7
		c0.3,0,0.6,0.1,0.9,0.1C645.2,184.4,643.7,184.1,644,183.7z M668.1,192.6c-0.6-0.2-1-0.8-0.4-0.9c0.1,0.1,0.3,0.1,0.5,0.2
		C668.1,192.1,668.1,192.4,668.1,192.6z M668.8,187.3c-0.7-0.2-0.5-0.5,0.3-0.4C669.2,187.1,668.8,187,668.8,187.3z M669.2,184.6
		c0.3,0.1,0.1,0.3,0.1,0.4C668.9,184.9,669,184.7,669.2,184.6z M669.4,187.8c-0.2-1,0.7-1,1.1-0.5
		C670.3,187.6,669.8,187.6,669.4,187.8z"/>
</g>
<path class="st0" d="M86.6,173.7c-1.1-0.5-2.1-1-3-1.6c0,0.1,0,0.2-0.2,0.3c-0.7-0.1-0.5-0.4-0.3-0.7c-0.6-0.4-1.1-0.9-1.6-1.3
	c0.9,0.1,1.9,0.4,2.8,0.6c-1.4-1.8-3-3.8-4.4-6c-1.6,1.1-3.3-1.5-1.9-3c-0.4-0.7-0.8-1.3-1.1-2c-0.4,0-0.7-0.1-1-0.3
	c0-0.4,0.2-0.5,0.6-0.5c-2.2-4.1-4.1-8.9-5.4-14.1c-1.3,0.6-3.3,0.8-5.8-0.2c0.2,0.8,0.1,1.8-0.4,2.2c-0.7-0.8-0.3-2.1-0.3-3.3
	c0.2,0.1,0.3,0.3,0.5,0.5c0.4-1.3,1.2-2.1,2.7-2.6c-2.4-1.1-6.6,1.9-8.3-1.6c-1.4,0.3-2.6,2.8-4.3,1.2c0.1-1.7,2.4-0.3,3.2-1
	c0.2-0.7,0.1-1.1-0.5-1.2c3.8-0.9,7.7-1.8,11.7-2.4c-0.2-1.9-0.3-3.8-0.3-5.8c0-1.2,0-2.5,0.1-3.6c-3-1.5-3-5.6-3.6-9.1
	c2.2,2,3.1,5.1,3.7,8.5c0.8-13.6,6.1-24.6,12.2-32.9c0.2-1.1,0.6-1.4,1.1-1.4c3.1-4.1,6.4-7.4,9.3-10c-2.8-0.1-5.9,0.9-8.2-0.4
	c1.9-2,7.8-3.6,11.1-2.1c0.6-0.5,1.2-1,1.8-1.4c0.1-0.2,0.3-0.4,0.6-0.5c1.9-1.4,3.2-2.3,3.7-2.6c0-0.1,0-0.2,0-0.4
	c-1.8-4.6-3.8-9.4-6-14.4c-0.3,0.6-0.8,1-1.8,1c0.2-1.1,0.6-2,1-2.8c-1.4-3-2.8-6.1-4.3-9.2c-0.1-0.2-0.2-0.4-0.3-0.6
	c-0.1,0.1-0.2,0.3-0.3,0.3c-1,0.1-0.6-0.9-0.4-1.8c-1.7-3.3-3.3-6.5-5-9.5c0,0,0,0-0.1,0c0,0,0-0.1,0-0.1c-1.2-2.2-2.4-4.4-3.7-6.4
	c-0.4-0.1-0.7-0.2-1.2-0.2c-1-0.1-0.7,1.7-1.3,2.1c-1.7-2.9-0.6-4.1,1.1-4.1c-1.5-2.6-3.1-5.1-4.6-7.4c-12.7,4.3-24.3,10.8-34.3,19
	c0.6,0.7,0.9,1.6,0.5,2.8c-1.1,0.2-2.3,0-3.4-0.4C31.3,48.5,26.2,54,21.8,60c4.3,4.9,7.2,12.1,13.4,14.3c-0.3,2.2-2.5,1.6-4,2
	c0.4-5.2-5.5-7.3-9.3-11.1c-0.7-0.7-1.4-1.6-2-2.6C8.7,78.4,1.7,97.3,0.3,117.4c-0.5,7.6-0.2,15.1,0.8,22.4c2.7-0.1,4.9,0.4,4.7,2.3
	c-0.2,3-2.6,0.7-4.3,0.3c0.2,1,0.4,2.1,0.6,3.1c0.7,0,1.1,0.1,1.8,0.8c-0.6,0.5-1,1-1.3,1.6c0.5,2.3,1.1,4.6,1.8,6.9
	c0.4,0.1,0.3,0.3,0.1,0.5c2.9,10,7.3,19.5,12.9,28.3c0,0,0-0.1,0.1-0.1c1.3-0.7,2.7,0.8,2.7,2.3c-0.4,0.1-0.9,0.1-1.4-0.1
	c2.7,4,5.8,7.9,9,11.6c2.9,0.9,5.7,1.9,8.1,2.9c0.2-0.7,0.3-1.4,0.3-2c-0.1,0-0.2-0.1-0.3-0.1c0.1-0.2,0.2-0.3,0.2-0.4
	c-0.1-0.5-0.2-1-0.5-1.5c0.9-0.6,1.2,0.2,1.6,1c1.2,0,2.8,0.7,4,0.7c0,0.9-1.9,0.1-2.9,0.1c-0.3,0.1-0.3,0.4-0.5,0.6
	c-0.4,0-0.8-0.1-1.1-0.2c-0.1,0-0.1,0.1-0.1,0.2c0.4,0.9,0.9,1,1.2,1.3c0.3,0.9-1.1,2.3-2.4,2.3c0.1-0.6,0.2-1.2,0.3-1.7
	c-1.7-0.1-3.4,0-4.9,0c8.8,9.1,19.2,16.7,31.1,22.4c4.5-5.2,9.1-10.9,13.8-17.2c-0.2,0-0.4,0.1-0.7,0c0-0.5,0.5-0.5,1-0.5
	c0,0,0,0,0,0c0.5-0.7,1.1-1.4,1.6-2.1c-0.2-1.2-0.9-2.5-0.9-3.6c1,0.1,1.2,0.5,1.6,0.9c0.4-0.1,0.9,0,1.2,0.1
	c0.8-1.1,1.6-2.3,2.4-3.4c-0.7-0.4-1.4-1-2.4-1c-0.6-0.1-0.3,0.6-0.7,0.7c-2.1-2.1,2.4-1.5,3.6-0.3c0.1-0.1,0.1-0.2,0.2-0.3
	c0,0,0-0.1,0.1-0.1c3.3-4.9,6.3-9.5,9-14.1c-0.4-0.1-0.6-0.2-1-0.3c0-0.2,0.3-0.2,0.3-0.5c0.4,0.3,0.7,0.3,0.9,0.5
	c0.4-0.6,0.8-1.3,1.1-1.9C91.9,179,89.5,177,86.6,173.7z M94.9,73c0.4,0.8-0.1,0.5-0.2,1.5C93.4,74.5,93.7,72.5,94.9,73z M91.1,54.8
	c-0.1,0.8-0.4,1.1-1.2,0.9C90,55,90.4,54.7,91.1,54.8z M90.2,70.4c1.4,0.2,2.4,1.9,1.2,3.2c-0.4-0.1-0.6,0-0.7,0.3
	C89.7,73.4,89.1,71.5,90.2,70.4z M67.6,112.7c-0.4-0.1-0.9-0.1-1.3-0.2c0.1-0.5,0.1-1,0.2-1.5C66.9,111.5,67.9,111.6,67.6,112.7z
	 M78.3,95.6c-0.7,0-1-0.5-0.8-1.3c0.3,0.1,0.7,0.1,1,0.1C78.4,94.8,78.4,95.2,78.3,95.6z M80.2,75.7c-0.8-0.2-1.2-0.7-1.1-1.7
	C79.8,73.4,80.8,74.3,80.2,75.7z M81.9,68.8c1.4-0.1,1.9,0.6,1.4,2.1C82.4,70.5,81.5,70.2,81.9,68.8z M85,77.9
	c-1.4-0.1-2.1-0.7-1.7-2.1c1-0.2,1.1-0.2,2,0.3C85.2,76.6,85.1,77.3,85,77.9z M88.8,75.4c0.6,1.1,0,3.3-1.7,2.4
	c0.1-0.9,0.3-1.7,0.4-2.6C87.9,75.3,88.3,75.4,88.8,75.4z M87.7,55.1c-1.7,1.1-5.7,3.5-8.9,2.4C80.8,55.2,84.1,54.9,87.7,55.1z
	 M82.3,45.3c0.8,0.2,0.6,1.5,0.1,1.9C81.5,47,81.8,45.7,82.3,45.3z M73.3,42.1c1.7,0.1,2.1,1.3,2.7,2.3c2.3-0.7,3.7,1.3,5.5,1.9
	c-0.2,4.1-3.3,2.3-5.5,2.6c0.7,4.1,0.9,11.5-4,11C76.8,55.5,72.9,47.9,73.3,42.1z M70.8,40.2c0.2,0,0.4,0.1,0.7,0.1
	c0,0.2-0.1,0.5-0.1,0.7c-0.2,0-0.4-0.1-0.7-0.1C70.7,40.7,70.8,40.5,70.8,40.2z M71.4,59.4c-0.6,0.4-0.9,1.3-2.2,0.8
	c0-1.5,1-1.5,1.9-1.6C71.1,59,71.1,59.3,71.4,59.4z M70.5,44.7c0,1.2-0.7,1.4-1,2.1c-0.6-0.4-0.7-1.1-0.7-2
	C69.7,45.2,69.7,44.4,70.5,44.7z M71.3,101.6c2,3.2-2.4,7.3-4.7,4.2C67.7,103.7,68.6,101.4,71.3,101.6z M68.3,80.3
	c0,2-0.7,3.1-2.2,3.1C65.7,81.7,66.4,79.6,68.3,80.3z M26.7,60.3c-1.4,0.2-1.6-2.1-2.6-1.1c-0.4-0.7,0-1.2,0.3-1.8
	c0.8,0.6,1.9,0.8,2.9,1.2C27.3,59.4,27,59.9,26.7,60.3z M70,150.9c0.2,0,0.4,0,0.6,0.1c0,0.1,0,0.3-0.1,0.4
	C70,151.4,69.8,151.2,70,150.9z M70.3,152c0.3,0.7,0.6,2.1,0,2.6c-0.4-0.1-0.9-0.1-1.3-0.2C68.9,152.8,69.6,152.4,70.3,152z
	 M70.5,163.8c-0.3,0.6-0.6,1.3-1.5,1.3C69.2,164.7,68.5,163.1,70.5,163.8z M68.6,167.5c0,0.5-0.3,0.6-0.5,0.8c-1-0.1-1.4-0.4-1.4-1
	C67.5,167.6,68,167.5,68.6,167.5z M64.4,148.7c0.7,0.5-0.2,1.6-0.8,1.7C63.4,149.7,64.2,149.3,64.4,148.7z M62.4,150.9
	c0.2,0.1,0.3,0.2,0.3,0.3c-1.4,1.3-2.1,3.3-3.7,4.5C58.9,153.4,61.8,152.3,62.4,150.9z M60.5,194.2c-1.2,0.3-1.4-0.7-2.3-0.9
	c0-0.3,0.1-0.6,0.3-0.7c1,0.5,1.1,0,2.1,0C60.3,193.4,60.3,193.6,60.5,194.2z M60.3,194.9c0,0.3-0.1,0.6-0.1,0.9
	c-0.3,0-0.6-0.1-0.9-0.1c-0.1-0.4,0.2-0.6,0.3-0.9C59.8,194.8,60,194.8,60.3,194.9z M59.4,171.3c-0.8-0.1-1.4-0.8-0.8-1.3
	C59.5,170.2,59.8,171,59.4,171.3z M59.8,178.7c0.7,0.3-0.1,0.9-0.7,0.8C58.6,179,59.6,179,59.8,178.7z M59.9,158.5
	c-0.4,0.3-1.5,0.5-2.3,0C57.9,158.1,59.2,158.2,59.9,158.5z M58.1,155.4c-0.4,0.5-1.1,0.6-1.3,0.1C57.2,155.1,57.5,155.3,58.1,155.4
	z M56.6,184.9c0.6,0.2,1,0.5,1,1c-0.5-0.2-1.1-0.3-1.4-0.6C56.1,185,56.6,185.2,56.6,184.9z M55.4,189.4c1.1,0.2,1.5,0.7,1.5,1.5
	C55.8,191,55.3,190.2,55.4,189.4z M65.4,33.1c0.2,1.5-1.3,1.7-1.8,0.9C64,33.3,64.4,32.8,65.4,33.1z M63.5,94.1
	c0.6,0.1,1.1,0.2,1.7,0.3C65.4,96.4,62.7,96,63.5,94.1z M65,111.8c-0.2,0.7-2.2,1.1-3.6,1C59.5,110.5,65.5,109.9,65,111.8z M54,41.5
	c3,0.4,3.4,3.1,6.3,3.6C58.9,48.3,51.6,46.7,54,41.5z M52,54.7c0.1-0.4,0-0.7-0.2-0.8C53.9,47.3,58.2,54.8,52,54.7z M46.7,165.2
	c0.5-0.3,1.8,0,2.5-0.1c-0.4,1.4-0.7,4.4-1.2,5.7c-0.6-1.4,0.2-2.9,0.3-4.5C47.9,165.8,46.7,165.8,46.7,165.2z M46.3,164.9
	c-0.2,0.3-0.5,0.4-1.2,0.2c-0.2-0.6,0.5-1.1,0.5-2C46.5,163.4,45.4,164.6,46.3,164.9z M45.4,156.1c-0.1-0.9,0.8-0.9,1.5-1.1
	C47.4,155.3,46.3,156.3,45.4,156.1z M46.9,154.4c0.1-0.1,0.4-0.2,0.8-0.1c-0.1,0.1,0,0.2,0.1,0.3c-0.1,0.1-0.4,0.2-0.8,0.1
	C47.1,154.6,47.1,154.5,46.9,154.4z M50.8,200.3c-1.1-0.1-2.4,0-2.7-0.9C48.9,199.4,50.7,199.5,50.8,200.3z M50.1,203.3
	c0.4,0.2,1.1,0.3,1.6,0.5c0,0.3-0.1,0.5-0.3,0.6c-0.8,0-0.9-0.8-1.4-0.5C49.8,203.6,50,203.5,50.1,203.3z M50.6,186.2
	c1,0.1,1.5,0.5,1.5,1.1C51.3,187.4,50.4,186.9,50.6,186.2z M51.6,152.2c-0.1-1,1.5,0.5,1.4-0.5c0.8,0.2-0.1,1.6-0.3,1.8
	C51.6,153.7,52.2,152.5,51.6,152.2z M52.7,174.4c1.2-0.1,0.4,1.3,0.1,1.5C52.4,175.8,52.7,175,52.7,174.4z M51.3,50.4
	c0.6,0.2,0.7,0.7,0.4,1.6C50.7,52.2,51.2,51.1,51.3,50.4z M50.7,92.9c0.3,0.1,0.6,0.1,0.9,0.1c0.5,0.5,0.3,1.7-0.6,1.7
	C50,94.3,50.7,93.6,50.7,92.9z M52,124.2c0,0.1,0,0.3-0.1,0.4c-0.5,0-0.7-0.1-0.5-0.5C51.6,124.1,51.8,124.2,52,124.2z M51.8,101.1
	c-0.2,1.4-2.2,3.1-4.5,2.6C47.7,102.4,49.9,101.6,51.8,101.1z M47.3,108.3c-0.2,0.2-0.5,0.2-1,0.1C46.2,108,47,108.3,47.3,108.3z
	 M46.1,106.2c0.3-0.8,2-0.2,1.2,0.9C46.7,107,47,106,46.1,106.2z M46.9,109.6c0.2,0.5,0.9-0.1,1.5,0c0.5,0.1,0,0.4-0.1,0.5
	C47.7,109.6,46.5,110.3,46.9,109.6z M47.2,91.3c-0.1,0.2-0.4,0.2-0.8,0.1C46.4,91.1,47,91.1,47.2,91.3z M46.3,96.2
	c-1.6,1.1-3.3,2.1-5.7,2.5c-0.6-1.5,4-1.7,5.3-2.8C46.1,96,46.3,96.1,46.3,96.2z M46,112c-0.7,0.4-2.2-0.2-1.7-1
	C45.3,110.6,46.1,111.2,46,112z M43.9,109.9c-0.3,0.2-0.7,0.4-1.4,0.3c0-0.3-0.5-0.2-0.3-0.6c0.7,0.1,0.9-0.1,1.5,0
	C43.7,109.7,43.7,109.8,43.9,109.9z M41.7,110.7c0,0.2-0.1,0.3-0.1,0.5c-0.3-0.1-0.8-0.2-0.7-0.5C41.1,110.6,41.3,110.6,41.7,110.7z
	 M42.1,71.2c0.1,2.2-2.2,2.8-3.3,1.8C38.9,71,41,70.2,42.1,71.2z M36.3,57.6c0.3,0.1,0.7,0.1,1,0.1c-0.1,0.4-0.1,0.7-0.2,1.1
	C36.2,58.9,35.9,58.5,36.3,57.6z M36.9,89.5c-0.2,0.6,0.2,0.8-0.2,1.1c-0.6-0.3-0.8-0.9-0.9-1.4C36.2,89.3,36.3,89.6,36.9,89.5z
	 M38.7,139.8c1.1-0.2,0.6,1,1.2,1.3c0.6,0,0.4-1.2,1.2-1c-0.5-1.2-1.2-3.8,0.4-4.8c1.6,0.1,1.3,3.7,0.1,4.1c2.6-1,6.5,0,10.2,0.4
	c-0.3,1.1,0.9,1,0.3,2.3c-0.4-0.1-0.8-0.2-1.2-0.2c0.1,0.2,0.2,0.5,0.1,0.7c-0.8,0-0.7-0.4-0.6-0.8c-5-0.2-10.8,4.2-14.5-0.3
	C36.3,140.4,37.8,140.6,38.7,139.8z M43.2,186.3c0.4,0.1,0.4-0.2,0.9,0C44.5,186.9,42.9,186.7,43.2,186.3z M39.3,175.2
	c-1.1,0.6-3.1-0.2-3.8-1.2C37.3,174.6,38.4,174.2,39.3,175.2z M34.3,121.6c-0.1,4.1-3.4,3.3-5.4,4.4c0.3-0.8-0.4-0.8-0.9-0.9
	c0.6-2.3,3.7-0.8,3.9-3.5C33,122.1,33.3,121.3,34.3,121.6z M34.2,140.7c-0.8,0-0.6-0.8-1.6-0.6c0-0.8,0.4-0.9,0.6-1.4
	C34.1,138.8,34.6,139.3,34.2,140.7z M28.6,109.2c0,0.9-0.3,1.4-0.6,1.8C27,110.8,27.5,108.6,28.6,109.2z M27.9,133.2
	c0.2,1.9-4.2-0.2-2-0.8C26.8,132.2,27.9,132.7,27.9,133.2z M32,105.5c0.4,0,0.6,0.2,0.5,0.5C32,106,31.9,105.9,32,105.5z M33.7,89
	c-0.7,2.3-3.8,2.7-6,1.4C28.7,86.9,31.9,88.4,33.7,89z M27.6,79.5c-1.2,0.3-1.9,0.8-1.9-1C26.3,78,28.1,78.1,27.6,79.5z M26.4,112.6
	c1.1,1.4,0.6,3.5-0.1,5.2C23.9,117.1,26.3,114.6,26.4,112.6z M23.4,96.4c-0.2,0.5-0.9,0.2-1.4,0.2C22.1,95.2,23.2,95.6,23.4,96.4z
	 M25.6,118.2c-1.9-0.2-4.5-1.1-4.9-2.4C21.7,116.9,24.4,117.2,25.6,118.2z M23.2,120.7c-0.4,0.5-0.7,1.1-1.5,0.9
	c-0.4-0.9-0.6-0.8-0.1-1.9C22.5,119.8,22.6,120.5,23.2,120.7z M21.4,135c-0.6,0.7-1.3,1.1-2.2,1.2C19.4,135,20.2,134.7,21.4,135z
	 M18.2,106.1c0.7,0,1,0.2,0.9,0.9c-0.3-0.1-0.7-0.1-1-0.1C18.1,106.6,18.2,106.4,18.2,106.1z M17.7,90.1c-0.3,0.1-0.2,0.7-0.8,0.5
	C16.9,90.2,17.1,90,17.7,90.1z M16.2,99.7c-1-0.4-1.5-0.7-2.1-1C14.5,97.6,16.7,98.8,16.2,99.7z M14.6,110.8
	c-0.8-0.1-1.9-1.1-2.4-1.8C13.4,109.5,13.7,110.3,14.6,110.8z M14.4,126.2c-1.2,0-0.9-0.8-1.6-1c-0.6-0.1-0.9,0-1,0.4
	c-1.6-0.2-1.8-0.1-3.1-1C10,124.6,14.3,123.7,14.4,126.2z M7.1,102.6c1,0.3,1.7,0.8,1.8,1.6C7.8,103.9,7.1,103.5,7.1,102.6z
	 M8.3,108.8c-0.1,0.3-0.4,0.3-0.4,0.7c-0.3-0.1-0.3-0.4-0.6-0.5c0.1-0.3,0.4-0.3,0.4-0.7C7.9,108.4,7.9,108.7,8.3,108.8z
	 M10.9,106.7c-1.5,0.3-1.6-0.9-2.1-1.5C9.8,105.1,10.7,106,10.9,106.7z M8.8,86.4c1.5,0.6-0.1,3.5-1.4,2.8
	C6.6,87.8,7.9,86.7,8.8,86.4z M7.4,99.5c0.8,0.1,1.5,0.3,1.6,0.8c-0.4,0.2-1.2-0.1-1.9-0.1C7.1,99.8,7.2,99.6,7.4,99.5z M6.8,100.7
	c0.3,0.2,0.9,0.3,1.1,0.5c-0.1,0.4-0.6,0.4-1.2,0.3C6.5,101.3,6.5,100.8,6.8,100.7z M3,123.4c-0.7,0.6-1.6,0-1.2-1.3
	C2.8,122.1,3.3,122.4,3,123.4z M4.7,107.5c0.1-0.8,1.2,0,1.7-0.1c-0.3,0.3-0.5,0.8-0.6,1.4C5.2,108.6,5.4,107.7,4.7,107.5z
	 M7.4,151.3c-1.6-0.3-2.3-1.4-2.3-3c1.3-1,1.3,1,2.9,0.8C8,150.1,7.9,150.9,7.4,151.3z M9.1,142.6c-0.4,0.3-1,0.4-1.7,0.1
	C7.3,140.7,9.5,140.5,9.1,142.6z M10.9,141.3c0.8-0.1,0.9,1.2,1.1-0.2c0.4,0.2,0.6,0.6,0.5,1.2C11.9,142.1,10.4,142.5,10.9,141.3z
	 M12.1,173.8c0.3-0.1,0.8,0,1.3,0.1C13.7,174.6,11.8,174.4,12.1,173.8z M13.4,155.8c0.9,0.3,1.5,0.1,2,0.4
	C15.1,156.5,13.7,156.3,13.4,155.8z M15.1,165.9c0.1-0.5,0.1-1,0.2-1.5c0.3,0,0.7,0.1,1,0.1C16.3,165.6,16,166.1,15.1,165.9z
	 M16.8,112.8c0.7,0.2,1.3,0.5,1.4,1C17.4,113.6,16.9,113.3,16.8,112.8z M17.2,138.2c2.1,2.1,6.1,0.9,9.4,1c-1,0.9-0.2,2,0.7,2.3
	c1.5,0.2,1.6-1.7,3-1.8c0.5,1.4,2.3,1.7,1.8,4C27.9,144.6,18.4,145.2,17.2,138.2z M29.5,147.1c-1-0.1-1.1-1.6-0.3-2.3
	c0.6,0,0.5,0.4,0.9,0.5C30.1,146.2,29.4,146,29.5,147.1z M30.1,172c0,0.1,0,0.3-0.1,0.4C29.1,172.4,29.3,171.7,30.1,172z
	 M30.5,144.2c0.2,0,0.4,0,0.6,0.1c0.3,0.3,0.4,1.2,0,1.5c-0.2-0.1-0.4-0.2-0.7-0.2C30,145.2,30.3,144.5,30.5,144.2z M31.6,186.3
	c-0.1,0.6-1,0.8-1.8,0.4C30.2,186.3,30.9,186.3,31.6,186.3z M26.4,161.6c-0.4-0.1,0-0.6,0.1-0.6c0.2,0,0.4,0,0.6,0.1
	C27.2,161.6,26.7,161.4,26.4,161.6z M20.4,161.3c-0.6-0.2-0.8-0.6-0.4-1C21,160.4,20.6,161,20.4,161.3z M20.4,162.5
	c0,0.4-0.1,0.7-0.7,0.5c0-0.2,0.1-0.4,0.1-0.6C20,162.4,20.2,162.4,20.4,162.5z M18.3,164.2c-0.3-0.2-0.7-0.4-0.3-0.6
	C18.5,163.6,18.2,164,18.3,164.2z M19.1,164.7c-0.1-0.2-0.6-0.3-0.5-0.6c0.4,0,0.8-0.1,1.1,0.2C19.9,164.7,19.2,164.5,19.1,164.7z
	 M22.4,170.6c-0.7-0.1-2.1-0.6-2.9-0.9c0.7-0.6,2.4-0.4,3.2,0.2C22.8,170.3,22.3,170.2,22.4,170.6z M21.6,165.7
	c-0.2-0.4-0.4-0.7,0-1c0.7,0.1,0.7,0.5,1.2,0.7C22.6,165.7,22.3,165.9,21.6,165.7z M21.5,150.8c0.1-0.7,0.5-0.7,0.6-1.4
	c0.2,0.2,0.5,0.5,0.9,0.5C22.9,150.8,22.1,150.7,21.5,150.8z M24.8,165.1c-0.2,0.6-0.7,0.8-1.4,0.5
	C23.7,164.9,24.2,164.2,24.8,165.1z M23.7,169.9c1.5,0.1,2.7,1.3,1.6,1.9C24.2,171.4,23.7,170.8,23.7,169.9z M25.1,175.4
	c0.5,0.3,0.9,0.6,0.8,1.1c-0.7,0-0.9-0.3-1.3-0.4C24.6,175.7,24.8,175.5,25.1,175.4z M25.6,189.9c0.2-1.1,2-0.6,2.4,0
	C28,191.5,25.6,190.8,25.6,189.9z M28.6,196.6c-0.4,0-0.7-0.6-0.9-0.2c0.2-0.6,0.7-1.9,2.3-1.5C29.6,195.5,29.1,196.1,28.6,196.6z
	 M32.5,193.9c-0.7,0.1-0.6-0.6-0.5-1.2c-0.4,0.4-1.1,0.7-1.7,0.8c-0.3,0.2-0.6,0.3-0.9,0.5c-0.5-0.1-0.4-0.5-0.3-0.8
	c-0.2-0.1-0.4-0.3-0.5-0.6c0.2-0.3,0.4-0.5,0.5-1c1.1,0.5,1.4-0.4,2.4,0c0-1.4-0.2-1.8,0.7-2.5c0.3,0,0.7,0.1,1,0.1
	C33.5,190.6,34.4,193.3,32.5,193.9z M34.8,191.5c-0.2,0-0.5-0.1-0.7-0.1C34,190.8,35.2,190.9,34.8,191.5z M35.7,157.4
	c0.2,0,0.1,0.3,0.1,0.4c-0.4,0-0.7-0.1-0.9-0.3C35.2,157.2,35.6,157.9,35.7,157.4z M35.4,192.7c0.3-0.6,1.6-0.4,2.2-0.7
	C38.2,192.4,36.5,192.9,35.4,192.7z M36.6,180.6c-0.3-0.9,2.9-0.7,4-0.3C39.4,180.6,37.5,180.3,36.6,180.6z M41.1,194.2
	c0.2-0.6,1.6-0.2,2-0.7C43.9,194.1,42,194.3,41.1,194.2z M43.9,208.5c-0.7-0.1-0.7-1-0.2-0.9C44.1,207.8,44.2,208.2,43.9,208.5z
	 M52.6,211.1c-0.6,0.1-1,0.2-1.1-0.4C51.8,210.5,52.8,210.6,52.6,211.1z M52.9,214.9c0.5-1.1,2.3-0.5,3.3-0.3
	C55.9,215.4,54.2,215.4,52.9,214.9z M54.4,210.1c0.1-1.8-3.2-2.7-5.4-4.1c-1.3-0.8-2.6-2.5-3.7-2.9c-1.1-0.3-3,0.5-2.9-0.9
	c7.3-0.2,8.4,5.8,14.2,7.4C56.5,210.2,55.3,210,54.4,210.1z M57.2,204.2c-0.5,0-0.7-0.1-0.5-0.5c0.2,0,0.4,0,0.6,0.1
	C57.2,203.9,57.2,204,57.2,204.2z M54.1,197.9c0.4-0.8,5-0.5,4.4,1.2C57,199.2,55.2,198.5,54.1,197.9z M60.2,209.2c0,0,0-0.1,0-0.1
	c-0.3,0.4-1.1,0.4-1.6,0.1c0-0.6,1-0.9,1.7-0.5c0.3-2.5,2.9-4.5,3.5-7.5C64.8,203.8,62.3,208.4,60.2,209.2z M64,162.1
	c1,0,1,0.9,0.6,1.2C64,163.1,63.7,162.7,64,162.1z M64.7,201.7c0.3,0.1,0.4,0.3,0.3,0.6C64.4,202.3,64.7,201.9,64.7,201.7z
	 M66.4,206c-0.6-0.1-0.8,0.3-1.4,0.2c-0.1-1.7,0.2-1.2,0.7-2.5C67,203.6,66.6,204.9,66.4,206z M65.3,203.2c0.1-0.1,0-0.2-0.1-0.3
	C66.1,200.7,68.7,203.4,65.3,203.2z M65.9,198.6c1.7,0.3,1.9,1.2,3.6,1.4C68.9,201.2,64.8,200.4,65.9,198.6z M72.8,178.1
	c-0.5,0.6-2.4,0.5-3.2,0.2C70.2,177.3,71.8,178.3,72.8,178.1z M72,196.1c0.1,0.5-0.7,0.5-1,0.2C71.2,196.1,71.4,195.9,72,196.1z
	 M71.6,207.5c-0.3-1.1-0.6-2.3,0.4-2.9c0.6,0,0.8,0.8,1,0.1C73.8,205.8,72.6,207.6,71.6,207.5z M72.6,167.7
	c-0.2,0.1-0.2,0.3-0.3,0.5c0.9,0.1,1.8,0.2,2.2,0.6C73.7,169.9,70,167.9,72.6,167.7z M74.7,201c-0.4-0.1-0.4-0.4-0.5-0.7
	c0.5,0.2,0.5-0.1,0.9,0C75.2,200.7,74.8,200.7,74.7,201z M75.2,178.4c0.2-0.5,1.8-0.6,1.7,0.3C76,178.5,75.7,178.7,75.2,178.4z
	 M77.6,179.5c0.1-1,0.8-1.9,2.7-1.8C80.3,179.2,79.4,179.7,77.6,179.5z M79.9,181.2c0-0.3,0.1-0.6,0.3-0.7
	C81,180.6,80.6,181.3,79.9,181.2z M84.7,181.4c-0.8-0.5-1.4-1-2-1.7c-0.9-0.1-1.7-0.4-1.7-1c0.4,0.1,0.8,0.1,1.2,0.2
	c-1.3-1.9-2.2-4-4.2-5.3c0.1-1.4,0.4-2.3,1.1-2.8c1.6,1.4,3.6,2.4,3.7,5c1.7-1,2.9-0.6,4.3,0.6C87.2,179.6,84.7,178.6,84.7,181.4z
	 M85.5,179.8c0.8,0.6,3.4,0.3,3,1.5c-1.1-0.3-1.6-0.7-2.9-0.8C85.8,180.2,85.3,180.1,85.5,179.8z M90.3,181c-0.3,0.2,0,0.2-0.1,0.5
	c-0.2-0.1-0.5-0.2-0.9-0.3C89.3,180.9,89.8,180.9,90.3,181z M89,184.7c-1.1,0.1-1.2-0.5-1.9-0.7C87.2,182.1,89.8,182.5,89,184.7z"/>
<g>
	<path class="st2" d="M105.1,132.9c14.1,1.8,28.2,1.8,40.8-2.4c2.8-1.4,2.8-5.5,4.2-8.3c7-35.9,18.2-92.8,20.7-105
		c8.8,59.4,28.3,163.4,30.6,176.4c10.1-30.8,20.3-61.6,30.4-92.4c2.9-8.8,5.8-17.7,8.7-26.5c4.5,14.7,9,29.3,13.6,44
		c2.8,9,5.6,20.1,9.8,28.4c15.5,0,29.5-5.5,42.2-13.8c8.4-33.2,20.2-82.6,24.3-99.6c5.2,27.7,10.9,55.3,17.9,83l28.1,12.4
		c1,1.5,3.1,35.4,6.9,54.5"/>
	<path class="st2" d="M603.4,139.1c-17.9,3.9-36.1,2.5-54.4-0.2c-11.2-26.3-18.3-52.5-29.5-79.3c-8.6,39.2-17.3,78.4-25.9,117.6
		c-4.3-18.7-8.7-37.4-13-56c-25.3,9.1-53.8,9.1-79.1,0c-4.1,16.7-18.1,62.7-18.1,62.7l-1-5.1"/>
</g>
</svg>
